<svg xmlns="http://www.w3.org/2000/svg" width="222" height="39.3" viewBox="0 0 222 39.3"><g transform="translate(-190 -22.35)"><g transform="translate(153 -2.65)"><g transform="translate(37 25)"><g transform="translate(18.015 0)"><path d="M182.507,133a.259.259,0,0,1-.107.107" transform="translate(-169.172 -109.794)" fill="#fff"/><path d="M186.493,97.887a.193.193,0,1,0-.193-.193.193.193,0,0,0,.193.193Z" transform="translate(-172.234 -81.922)" fill="#fff"/><path d="M203.462,61.3H196.5v5.63a1.314,1.314,0,0,0,.537,1.16l2.686,1.59a.345.345,0,0,0,.236.107.382.382,0,0,0,.215-.086l2.729-1.633a1.267,1.267,0,0,0,.537-1.16l.021-5.608ZM198.8,62.933h-.6v-1.44h.6v1.44Zm-.43.516.086-.086-.064-.107.107.021.064-.129.064.107h.107l-.043.107.086.086-.107.021V63.6l-.107-.086-.107.086V63.47l-.086-.021Zm-1.676,1.783V63.857h.731v1.375Zm.107-1.977.107.021.064-.129.064.107h.107l-.043.107.086.086-.107.021V63.6l-.107-.086-.107.086V63.47l-.107-.021.086-.086-.043-.107Zm.838,1.4.107.021.064-.129.064.107h.107l-.043.107.086.086-.107.021V65l-.107-.086L197.7,65v-.129l-.107-.021.086-.086-.043-.107Zm.473-1.117c0-.043-.043-.043-.064-.043-.064,0-.086.107-.15.107-.043,0-.064,0-.064-.043s.086-.064.107-.086c-.451,0-.451.215-.537.215-.129,0,.107-.215.172-.279-.086-.021-.15-.129-.236-.193.043-.064.064-.043.129,0,0-.043.043-.107.15-.107.193,0,.15.193.172.193.043,0,0-.193.129-.193.193,0,.451.516.215.516-.086,0,0-.064-.021-.086Zm-.516-1.5.086-.086-.043-.107.107.021.064-.129.064.107h.107l-.043.107.086.086-.107.021v.129l-.107-.086-.107.086v-.129l-.107-.021Zm-.172-.537v1.44h-.731v-1.44Zm1.375,7.435-1.676-.988a1.2,1.2,0,0,1-.451-.924v-1.59H198.8v3.5Zm-.6-3.7V63.857h.6v1.375Zm2.75,3.8-.774.451h-.021a.347.347,0,0,1-.193.064.363.363,0,0,1-.215-.064l-.774-.451v-3.61h1.955v3.61Zm0-3.8h-1.955V61.493h1.955v3.739Zm2.321,1.762a1.2,1.2,0,0,1-.451.924l-1.676.988V65.426h2.127v1.569Zm0-1.762h-2.127V61.493h2.127v3.739Z" transform="translate(-180.243 -53.5)" fill="#fff"/><path d="M199.791,82.417c0-.021-.258.086-.193.086,0-.064.15-.236.215-.279-.021-.086-.129,0-.236.043.387-.559.15-.344-.086-.3.344-.387.258-.365,0-.258.215-.172.258-.365.215-.408-.193.258-.365.215-.365.451a1.116,1.116,0,0,1-.129.494c-.107.107-.021-.408-.3-.408-.086,0-.3,0-.344.107.064,0,.129.15.129.193,0,.064.043.215-.043.215s-.193-.193-.193-.279v-.215a.727.727,0,0,0-.516-.537c0,.15.215.193.215.387-.086,0-.215-.172-.215-.064s.129.129.129.215-.15-.021-.15.064.086.064.107.15a.12.12,0,0,0-.129.021.115.115,0,0,0,.064.086c-.021.021-.043.064-.043.193,0,.451.279.645.473.645.15,0,.129-.107.15-.15,0,.086.086-.043.086.086s-.15.086-.15.193c0,.15.215,0,.215.172a2.965,2.965,0,0,1-.021.3c0,.064.236-.086.215-.107.064.021.043.193.15.172.064,0,.086-.172.129-.193-.021,0,.215.15.215.086,0-.215-.086-.129-.086-.258s.279-.107.236-.172-.064-.021-.086-.129c0,.021-.215-.322.043-.15.279.193.322-.43.3-.451Z" transform="translate(-181.342 -69.203)" fill="#fff"/><path d="M240.436,91.887a.2.2,0,1,0-.236-.193.219.219,0,0,0,.236.193Z" transform="translate(-214.553 -77.211)" fill="#fff"/><path d="M236.136,94.487a.2.2,0,1,0-.236-.193.219.219,0,0,0,.236.193Z" transform="translate(-211.177 -79.252)" fill="#fff"/><path d="M184.936,100.387a.2.2,0,1,0-.236-.193.219.219,0,0,0,.236.193Z" transform="translate(-170.978 -83.884)" fill="#fff"/><path d="M188.236,100.687a.2.2,0,1,0-.236-.193.219.219,0,0,0,.236.193Z" transform="translate(-173.569 -84.12)" fill="#fff"/><path d="M280.332,56.3a1.455,1.455,0,0,1,.172,1.526c-.129-.021-.107-.172-.129-.279A1.87,1.87,0,0,1,280.16,56c.15.021.086.215.172.3Z" transform="translate(-245.853 -49.339)" fill="#fff"/><path d="M144.194,57.729a2.441,2.441,0,0,0,0,.967c-.064.064-.043-.064-.107-.043-.473-.344-.258-1.01-.387-1.483.021-.043.086-.043.129-.021a.811.811,0,0,1,.365.58Z" transform="translate(-138.788 -50.229)" fill="#fff"/><path d="M284.51,59.629c.064.129-.064.279-.15.322a.33.33,0,0,1-.3-.129.288.288,0,0,1,.15-.322.377.377,0,0,1,.3.129Z" transform="translate(-248.978 -52.087)" fill="#fff"/><path d="M140.848,62.05a.449.449,0,0,1-.15.279.333.333,0,0,1-.236-.064.229.229,0,0,1-.043-.258.252.252,0,0,1,.236-.107.238.238,0,0,1,.193.15Z" transform="translate(-136.194 -53.971)" fill="#fff"/><path d="M286.751,63.129a.3.3,0,0,1,0,.193.238.238,0,0,1-.451-.107.309.309,0,0,1,.215-.215c.086,0,.15.064.236.129Z" transform="translate(-250.747 -54.835)" fill="#fff"/><path d="M283.687,63.349c.107.043.021.172.021.236-.064.064-.15.15-.258.129-.064-.064-.129-.064-.15-.15a.261.261,0,0,1,.172-.279c.086-.021.15.043.215.064Z" transform="translate(-248.392 -55.055)" fill="#fff"/><path d="M279.418,63.95c0,.129.021.3-.15.322-.15.043-.236-.064-.279-.172a.305.305,0,0,1,.172-.3.516.516,0,0,1,.258.15Z" transform="translate(-245.003 -55.463)" fill="#fff"/><path d="M147.167,64.23c.043.129-.086.193-.15.258a.232.232,0,0,1-.236-.129c-.086-.086.021-.15.043-.236a.223.223,0,0,1,.344.107Z" transform="translate(-141.18 -55.678)" fill="#fff"/><path d="M143.883,64.387a.247.247,0,0,1-.129.236.2.2,0,0,1-.236-.107.206.206,0,0,1,.107-.279c.129-.064.215.064.258.15Z" transform="translate(-138.627 -55.792)" fill="#fff"/><path d="M266.233,64.563a2.323,2.323,0,0,1,.236.881c-.043.236.043.537-.129.688-.172-.064-.172-.279-.3-.387a2.242,2.242,0,0,1,.043-1.354c.129-.021.129.107.15.172Z" transform="translate(-234.762 -55.925)" fill="#fff"/><path d="M140.939,65.272c.043.15-.064.215-.15.3-.15.043-.236-.064-.3-.172a.325.325,0,0,1,.15-.3.288.288,0,0,1,.3.172Z" transform="translate(-136.263 -56.484)" fill="#fff"/><path d="M274.494,65.846a1.845,1.845,0,0,1,.064,1.182l-.064.064A4.723,4.723,0,0,1,274,66.1a1.411,1.411,0,0,1,.15-.688c.086-.064.129.021.172.086a.348.348,0,0,0,.172.344Z" transform="translate(-241.09 -56.714)" fill="#fff"/><path d="M281.709,65.879a.362.362,0,0,1-.172.3.226.226,0,0,1-.279-.15.275.275,0,0,1,.129-.3c.129-.064.258.043.322.15Z" transform="translate(-246.78 -56.962)" fill="#fff"/><path d="M143.681,67.336a.259.259,0,0,1-.172.236c-.107.064-.172-.043-.258-.086-.043-.107-.064-.193,0-.279.043-.064.129-.064.193-.107.086.086.193.129.236.236Z" transform="translate(-138.404 -58.054)" fill="#fff"/><path d="M146.293,67.283c.043.129-.086.172-.129.236-.15.043-.215-.064-.279-.15-.021-.129.043-.193.129-.279a.261.261,0,0,1,.279.193Z" transform="translate(-140.5 -58.044)" fill="#fff"/><path d="M280.205,67.8c-.021.15-.258.322-.279.473a1.252,1.252,0,0,1-.752.688.449.449,0,0,1-.279.15c-.022-.236.193-.473.322-.688a1.744,1.744,0,0,1,.988-.623Z" transform="translate(-244.932 -58.603)" fill="#fff"/><path d="M140.981,68.629a4.158,4.158,0,0,0,.494.58.1.1,0,0,1-.086.129c-.6-.043-.988-.645-1.289-1.074.043-.129.193-.021.279-.043.215.15.451.193.6.408Z" transform="translate(-135.961 -58.917)" fill="#fff"/><path d="M281.56,71a1.534,1.534,0,0,1-.752,1.311c-.129.043-.279.193-.408.107A6.5,6.5,0,0,1,281.474,71Z" transform="translate(-246.115 -61.116)" fill="#fff"/><path d="M273.082,72.05a.3.3,0,0,1-.215.365c-.129.021-.215-.107-.279-.193a.261.261,0,0,1,.172-.279.2.2,0,0,1,.15-.043c.086.043.107.107.172.15Z" transform="translate(-239.979 -61.822)" fill="#fff"/><path d="M137.488,72.542a8.023,8.023,0,0,1,.666.58c-.15.107-.344.021-.537.021-.408-.15-.688-.494-1.117-.623.021-.129.172-.086.258-.129a2.948,2.948,0,0,1,.731.15Z" transform="translate(-133.135 -62.206)" fill="#fff"/><path d="M144.332,40.4c-.688-.279-1.139.43-1.826.344-.086.043-.064.129-.107.193a.081.081,0,0,1-.129-.021c-.043-.3-.129-.559-.172-.838-.064-.129-.043-.3-.107-.408-.387-1.074.945-.258,1.225-.881.236-.537-.451-.6-.666-.988v-.15c-.193-.193-.408-.258-.516-.516a1.771,1.771,0,0,0,.043-.945c-.021-.064-.064-.172-.172-.129-.236.322-.408.58-.623.881a8.766,8.766,0,0,0-.709-.537c-.172-.021-.344-.215-.559-.129-.043.064,0,.129.043.193a1.808,1.808,0,0,0,.6,1.2l.043.193a5.721,5.721,0,0,0-.215,1.612,8.9,8.9,0,0,1-2.643,3.717,5,5,0,0,0-1.633,2.621c-.043.172.021.387-.107.494a4.443,4.443,0,0,1-1.139-.6c-.559-.387-1.354-.344-1.719-1.053-.15-.279.043-.559.172-.774a1.432,1.432,0,0,0,.129-1.569c-.043-.021-.064.043-.086.064-.043.731-.6,1.225-.387,2.02a5,5,0,0,0,.236.6,1.066,1.066,0,0,1-.279-.064,2.585,2.585,0,0,0-.817-.107c-.559.258-1.332-.064-1.783.451-.064.021-.172.021-.15.129.258,0,.516.064.8.064.43.064.709-.279.988-.451h.064c.129-.129.322-.043.494-.064a4.844,4.844,0,0,1,2,.838v.043c-.236.107-.516.193-.774.322a1.687,1.687,0,0,0-.688.817c-.193.3.064.58.172.838.021.129.021.279.129.322.387-.408.021-.924.086-1.4a1.03,1.03,0,0,1,.8-.645c.688-.3,1.182.279,1.74.58a8.534,8.534,0,0,1-.064,1.655,1.317,1.317,0,0,1-.58.086,9.669,9.669,0,0,0-2.578.9c-.387.129-.859.129-1.246.279a2.826,2.826,0,0,0,.945-.043c1.182-.172,2.106-1.1,3.4-.924l.021.043a3.026,3.026,0,0,1-.58.8c-.043-.129-.043-.236-.172-.322a.221.221,0,0,0-.279.107.161.161,0,0,0,0,.193.428.428,0,0,0,.258.172c-.021.107-.15.15-.236.258-.344.58-1.031.344-1.44.752-.064.086-.279.129-.172.279a1.8,1.8,0,0,0,1.246-.322c.451-.494.924-.988,1.375-1.461a1.583,1.583,0,0,1-.258,1.117,1.6,1.6,0,0,0-.322-.193.269.269,0,0,0-.215.236.673.673,0,0,0,.172.236,3.923,3.923,0,0,1-1.418.451,21.551,21.551,0,0,1-2.643.193,5.349,5.349,0,0,1-1.311,0c-.451.086-.967-.064-1.332.193-.043.064.021.129.021.193.559.365,1.332.064,1.955.193h4.792a2.142,2.142,0,0,0,.988-.193,3.369,3.369,0,0,0,1.268-1.612,2.116,2.116,0,0,0,.258-.731,1.087,1.087,0,0,1,.9-.752,5.446,5.446,0,0,1-.215,1.869c-.064.387-.322.774-.172,1.182.043.193.236.193.408.215,1.461-.021,2.944-.086,4.491.021a4.981,4.981,0,0,0,.817.129c.021-.043.107-.043.064-.129a.481.481,0,0,0-.3-.344c-.021-.064-.129-.043-.172-.107a5.1,5.1,0,0,0-2.621-.193,2.074,2.074,0,0,1-1.354-.129c-.172-.215-.043-.924-.043-.924a17.925,17.925,0,0,1,.752-2.364,1.6,1.6,0,0,0,.064-.559,2.151,2.151,0,0,0,.064-.838,5.839,5.839,0,0,1,.365-1.139,4.306,4.306,0,0,1,.215-.559,2.1,2.1,0,0,1,.236-.645c.387.258.774.236.967.688l.172,1.01c0,.064.043.193.129.107.322-.215.215-.666.215-.988.064-.387-.193-.559-.3-.9a1.374,1.374,0,0,1-.215-.344c-.043-.279-.645-.451-.494-.8a.962.962,0,0,1,.408-.688.115.115,0,0,1,.064.086l.15-.107.021-1.031c.387,0,.988.043,1.375.043.107.043.193.129.322.129l.107-.129.988-.193c-.365.043-.623-.43-1.01-.43Z" transform="translate(-126.957 -33.679)" fill="#fff"/><path d="M206.6,58.221a.129.129,0,0,0,.086-.021l-.086.021Z" transform="translate(-188.172 -51.066)" fill="#fff"/><path d="M155.794,73.65a.243.243,0,0,1-.193.279c-.107-.043-.172-.043-.236-.15a.24.24,0,0,1,.172-.279c.107.021.236.043.258.15Z" transform="translate(-147.938 -63.079)" fill="#fff"/><path d="M152.36,74.017a.264.264,0,0,1,.043.279c-.086.064-.215.129-.3.043-.064-.064-.15-.15-.086-.258.107-.086.258-.172.344-.064Z" transform="translate(-145.3 -63.445)" fill="#fff"/><path d="M232.4,74.8h0" transform="translate(-208.429 -64.099)" fill="#fff"/><path d="M273.93,75.287a.246.246,0,0,1-.15.279c-.129-.043-.279-.064-.279-.215.021-.107.107-.15.172-.193.107-.043.193.043.258.129Z" transform="translate(-240.697 -64.372)" fill="#fff"/><path d="M277,75.335c.043.064.129.15.021.215-.043.043-.086.043-.129.107a.25.25,0,0,1-.3-.15c-.021-.129.086-.193.172-.258.107-.043.172.021.236.086Z" transform="translate(-243.121 -64.441)" fill="#fff"/><path d="M137.93,75.515a.221.221,0,0,1-.322.15c-.043-.043-.064-.107-.107-.15a.285.285,0,0,1,.129-.215c.172.021.279.086.3.215Z" transform="translate(-133.92 -64.492)" fill="#fff"/><path d="M156.873,76.6a.391.391,0,0,1-.215.236.259.259,0,0,1-.258-.172.217.217,0,0,1,.15-.236.25.25,0,0,1,.322.172Z" transform="translate(-148.759 -65.364)" fill="#fff"/><path d="M153.774,76.57a.206.206,0,0,1,.043.193c-.064.064-.172.172-.3.107-.064-.064-.15-.107-.129-.236.043-.043.107-.129.172-.15.107-.021.15.043.215.086Z" transform="translate(-146.391 -65.418)" fill="#fff"/><path d="M285.439,76.972a.31.31,0,0,1-.15.236.193.193,0,0,1-.258-.064c-.064-.021-.043-.129-.043-.193a.239.239,0,0,1,.451.021Z" transform="translate(-249.714 -65.67)" fill="#fff"/><path d="M289.18,77.537c-.043.107-.129.215-.236.215-.064-.021-.215-.043-.172-.15a.208.208,0,0,1,.408-.064Z" transform="translate(-252.682 -66.127)" fill="#fff"/><path d="M144.288,78.429a.25.25,0,0,1-.15.3c-.086.043-.172-.021-.236-.064a.2.2,0,0,1-.064-.236c.021-.107.129-.086.215-.129a.27.27,0,0,1,.236.129Z" transform="translate(-138.882 -66.847)" fill="#fff"/><path d="M147.048,78.818c.043.107-.064.129-.107.215a.2.2,0,0,1-.215.021c-.086-.064-.172-.193-.107-.3a.252.252,0,0,1,.43.064Z" transform="translate(-141.061 -67.128)" fill="#fff"/><path d="M282.293,78.707c.022.129-.086.215-.172.279a.2.2,0,0,1-.236-.15c-.021-.107.043-.172.129-.236a.33.33,0,0,1,.279.107Z" transform="translate(-247.277 -67.083)" fill="#fff"/><path d="M286.591,79.435c-.022.107-.022.236-.129.3a.366.366,0,0,1-.3-.043.229.229,0,0,1-.043-.258.289.289,0,0,1,.3-.15c.086.064.107.129.172.15Z" transform="translate(-250.587 -67.617)" fill="#fff"/><path d="M142.348,80.529c.043.107-.064.129-.107.172A.231.231,0,0,1,142,80.68c-.086-.043-.043-.172-.043-.236.129-.193.344-.064.387.086Z" transform="translate(-137.414 -68.454)" fill="#fff"/><path d="M279.561,80.808c.043.021.022.086.022.107a.913.913,0,0,1-.988-.043,3.675,3.675,0,0,0-.494-.279c.064-.15.279-.15.43-.193.344.064.623.408,1.031.408Z" transform="translate(-244.309 -68.496)" fill="#fff"/><path d="M145.055,81.273c.021.107-.043.129-.064.215-.043.064-.15.043-.215.021a.222.222,0,0,1-.086-.3.212.212,0,0,1,.365.064Z" transform="translate(-139.541 -69.068)" fill="#fff"/><path d="M149.763,81.591a.233.233,0,0,1-.129.279c-.086.043-.15-.021-.236-.043-.064-.086-.172-.193-.064-.279a.262.262,0,0,1,.43.043Z" transform="translate(-143.175 -69.322)" fill="#fff"/><path d="M210.54,83.578c-.021.236-.43-.043-.365.3a2.163,2.163,0,0,0,.236.688,1.012,1.012,0,0,1,.043.623,1.118,1.118,0,0,1-.451.387c-.344-.043-.859.172-1.01-.258a1.848,1.848,0,0,1-.193-.58c.043-.021.086-.021.107-.064,0-.086-.086-.129-.086-.215.387-.064-.172-.408.172-.451.279.3.731.193.967.516.064.043.107.107.172.15-.043-.3-.193-.58-.236-.9a.391.391,0,0,1,.129-.408c.215-.129.387.107.516.215Z" transform="translate(-189.9 -70.793)" fill="#fff"/><path d="M155.2,83.787c.043.129-.064.193-.129.258-.107.043-.172-.064-.215-.129-.043-.129.043-.193.129-.236a.2.2,0,0,1,.215.107Z" transform="translate(-147.54 -71.067)" fill="#fff"/><path d="M189.866,84.516a1.622,1.622,0,0,1-.15,1.375c-.021.107.021.258-.107.236-.322-.451-.086-1.1.043-1.569.021-.129.172-.172.215-.043Z" transform="translate(-174.704 -71.666)" fill="#fff"/><path d="M238.365,84.837a1.4,1.4,0,0,1,.021,1.139l-.107.107a3.1,3.1,0,0,1-.279-.859,3.133,3.133,0,0,0,.15-.645c.193-.043.172.172.215.258Z" transform="translate(-212.825 -71.773)" fill="#fff"/><path d="M155.483,86.092c-.064.15-.279.193-.408.279a1.45,1.45,0,0,1-1.074.215,1.323,1.323,0,0,1,1.375-.58c.021.043.086.021.107.086Z" transform="translate(-146.875 -72.877)" fill="#fff"/><path d="M137.292,88.5a3.128,3.128,0,0,1,.838,1.2c.043.043.15.064.107.15-.107.064-.193-.064-.322-.043a1.357,1.357,0,0,1-.731-1.268c-.021-.043.043-.043.107-.043Z" transform="translate(-133.669 -74.856)" fill="#fff"/><path d="M236.043,89.863a.25.25,0,0,1-.107.279.226.226,0,0,1-.279-.15c-.043-.086.043-.129.064-.193a.2.2,0,0,1,.322.064Z" transform="translate(-210.976 -75.831)" fill="#fff"/><path d="M237.14,52.43a6.244,6.244,0,0,1,.086-.666.333.333,0,0,0,.043-.258c.3-.387.881-.279,1.354-.236a1.881,1.881,0,0,0,.6.129.512.512,0,0,1,.3-.064c.387-.215.129-.666.15-1.01l-.15-.365a2.512,2.512,0,0,1-.107-.236c-.064-.086-.129-.236-.193-.322a6.079,6.079,0,0,0-3.5-2.836,4.321,4.321,0,0,0-2.793.408.679.679,0,0,1-.473-.516,2.318,2.318,0,0,1,.236-1.289,5.376,5.376,0,0,1,.322-.817,8.6,8.6,0,0,0,.494-2.106,1.112,1.112,0,0,0-.666-.967.674.674,0,0,0-.666.129,1.7,1.7,0,0,1-.8.709c-.021.215.236.064.322.15.258.043.58-.043.8.129a2.089,2.089,0,0,1-.516,1.268,9.526,9.526,0,0,0-1.1,1.912l-.043-.043.064,2.987a3.405,3.405,0,0,0,1.59,1.612c.387.322.881.688,1.4.408.279-.086.3.3.43.473.15.451-.172.774-.215,1.182l-.322.666a8.8,8.8,0,0,1-1.246,2.063c-.172,0-.3.193-.473.215-.107.129-.3.043-.408.086-.387.15-.9.064-1.16.408.021.043.064.043.107.064.731.021,1.569.064,2.364.021a.31.31,0,0,0,.193-.236c-.107-.215.043-.387.129-.559.064-.3.258-.473.344-.752.258-.494.537-.988.817-1.483l.387-.6a3.7,3.7,0,0,1,.387-.688,1.4,1.4,0,0,0,.215-.322c.021-.129-.043-.172-.129-.258.086-.086.215-.064.322-.086a1.419,1.419,0,0,1,.688.817l.107.322.043.15-.021.408.043.387a8.374,8.374,0,0,1-.107,1.783c-.215.709-1.01.645-1.612.8-.15.107-.43.043-.43.3a10.048,10.048,0,0,0,2.278.043c.129-.043.15-.15.215-.279.021-.15.172-.3.129-.473-.129-.172-.021-.43-.043-.666a.439.439,0,0,0,0-.236c.107-.344.064-.774.15-1.117l.064-.537Z" transform="translate(-206.937 -37.754)" fill="#fff"/><path d="M283.312,91a2.974,2.974,0,0,1-1.483,1.375c-.043,0-.107.021-.129-.043.408-.43.623-1.117,1.268-1.289.107-.043.258-.107.344-.043Z" transform="translate(-247.135 -76.797)" fill="#fff"/><path d="M133.451,93.115c-.064.043-.021.15-.129.172a.208.208,0,0,1-.258-.107.246.246,0,0,1,.15-.279c.107.043.215.086.236.215Z" transform="translate(-130.43 -78.31)" fill="#fff"/><path d="M145.547,93.444c.043.107-.086.107-.15.129a1.272,1.272,0,0,1-1.4-.365c0-.043,0-.107.043-.107.494.129,1.1.021,1.5.344Z" transform="translate(-139.023 -78.467)" fill="#fff"/><path d="M136.43,93.586a.287.287,0,0,1,.021.193.264.264,0,0,1-.3.107.5.5,0,0,1-.15-.15.3.3,0,0,1,.215-.236.276.276,0,0,1,.215.086Z" transform="translate(-132.742 -78.781)" fill="#fff"/><path d="M189.447,93.78a.217.217,0,0,1-.408.129.174.174,0,0,1,.086-.236c.107-.021.279,0,.322.107Z" transform="translate(-174.371 -78.911)" fill="#fff"/><path d="M289.735,93.929c.043.129-.064.193-.15.258-.064.043-.15,0-.236-.043-.021-.064-.086-.107-.064-.193a.273.273,0,0,1,.279-.15.517.517,0,0,0,.172.129Z" transform="translate(-253.087 -79.017)" fill="#fff"/><path d="M293.53,93.854a.228.228,0,0,1-.043.279.153.153,0,0,1-.215.064c-.064-.064-.172-.107-.172-.215s.107-.172.172-.215c.107-.043.15.086.258.086Z" transform="translate(-256.086 -78.985)" fill="#fff"/><path d="M130.851,95.272c.021.086-.064.129-.086.215-.064.021-.129.064-.193.043a.217.217,0,0,1,.043-.43.226.226,0,0,1,.236.172Z" transform="translate(-128.346 -80.037)" fill="#fff"/><path d="M250.1,95.493a.366.366,0,0,1,.021.15c-.064.107-.172.193-.3.129-.064-.064-.15-.15-.129-.258.107-.15.3-.193.408-.021Z" transform="translate(-221.999 -80.259)" fill="#fff"/><path d="M140.182,95.853a.228.228,0,0,1-.172.193c-.107.021-.15-.086-.215-.129,0-.107-.021-.215.107-.279a.207.207,0,0,1,.279.215Z" transform="translate(-135.721 -80.446)" fill="#fff"/><path d="M134.551,96.172c.043.129-.043.215-.129.279a.289.289,0,0,1-.322-.172.406.406,0,0,1,.215-.279c.107,0,.172.107.236.172Z" transform="translate(-131.251 -80.744)" fill="#fff"/><path d="M253.651,96.229a.275.275,0,0,1-.129.3.289.289,0,0,1-.322-.172c.064-.107.064-.236.215-.258a.27.27,0,0,1,.236.129Z" transform="translate(-224.759 -80.822)" fill="#fff"/><path d="M137.475,96.272c.043.086-.043.129-.064.193-.064,0-.086.064-.172.043-.043-.064-.15-.086-.15-.172a.217.217,0,0,1,.15-.236.285.285,0,0,1,.236.172Z" transform="translate(-133.594 -80.822)" fill="#fff"/><path d="M286.394,96.54a.323.323,0,0,1-.215.193c-.107.021-.15-.064-.236-.107-.064-.043-.043-.15-.021-.215a.261.261,0,0,1,.473.129Z" transform="translate(-250.433 -80.983)" fill="#fff"/><path d="M290.749,96.909a.357.357,0,0,1-.3.215c-.107-.043-.236-.129-.15-.279.043-.043.064-.107.15-.107a.22.22,0,0,1,.3.172Z" transform="translate(-253.863 -81.309)" fill="#fff"/><path d="M264.193,97.45c.064.15-.086.215-.172.279a.58.58,0,0,1-.236-.107.3.3,0,0,1,.172-.322.352.352,0,0,1,.236.15Z" transform="translate(-233.067 -81.765)" fill="#fff"/><path d="M248.772,98.356c.064.021.043.107.021.15-.064.043-.172.172-.279.107a.216.216,0,0,1-.129-.236.232.232,0,0,1,.387-.021Z" transform="translate(-220.975 -82.52)" fill="#fff"/><path d="M251.854,98.55c.021.107-.021.15-.107.193-.086.086-.172-.021-.258-.043a.287.287,0,0,1-.021-.193.654.654,0,0,1,.15-.107c.107.043.193.043.236.15Z" transform="translate(-223.392 -82.628)" fill="#fff"/><path d="M155.849,98.792c.064.064-.021.15-.021.236a.259.259,0,0,1-.3.064c-.129-.043-.107-.215-.086-.3.064-.021.064-.107.172-.107.107-.021.172.043.236.107Z" transform="translate(-147.993 -82.848)" fill="#fff"/><path d="M270.051,98.815c.021.129-.107.172-.172.193-.15.043-.215-.064-.279-.15,0-.064.064-.129.107-.172.15-.086.258.021.344.129Z" transform="translate(-237.635 -82.828)" fill="#fff"/><path d="M267.051,98.85c.043.129-.086.193-.129.236a.229.229,0,0,1-.258-.043c-.064-.043-.064-.107-.064-.193.064-.064.107-.129.193-.15a.3.3,0,0,1,.258.15Z" transform="translate(-235.28 -82.864)" fill="#fff"/><path d="M287.134,99.164c.022.172-.193.086-.279.129a2.025,2.025,0,0,1-1.655-.107c.043-.15.215-.107.322-.15.516-.322,1.053.064,1.569.107l.043.021Z" transform="translate(-249.883 -83.027)" fill="#fff"/><path d="M133.455,99.207l-.043.086a1.928,1.928,0,0,1-1.569.279l-.043-.064a2.249,2.249,0,0,1,1.633-.322l.021.021Z" transform="translate(-129.445 -83.221)" fill="#fff"/><path d="M275.815,99.329a.234.234,0,0,1-.451.107c-.043-.107.064-.193.15-.236.107,0,.258,0,.3.129Z" transform="translate(-242.153 -83.256)" fill="#fff"/><path d="M147.915,99.379c-.043.107-.021.193-.15.236a.274.274,0,0,1-.3-.15c-.043-.129.064-.172.129-.236.129-.064.258.043.322.15Z" transform="translate(-141.735 -83.264)" fill="#fff"/><path d="M143.988,99.593c.043.086-.043.129-.064.193a.243.243,0,0,1-.236.043.262.262,0,0,1-.129-.3.387.387,0,0,1,.193-.129c.107.021.215.064.236.193Z" transform="translate(-138.668 -83.413)" fill="#fff"/><path d="M279.848,100.815a.283.283,0,0,1-.193.215c-.107.021-.172-.064-.236-.129a.2.2,0,0,1,.043-.236c.022-.043.107-.043.15-.064a.342.342,0,0,1,.236.215Z" transform="translate(-245.326 -84.356)" fill="#fff"/><path d="M136.846,100.843c.043.107-.043.129-.064.215a1.932,1.932,0,0,1-.258.516c-.236.279-.559.279-.881.365l-.043-.107a3.129,3.129,0,0,1,1.225-1.031l.021.043Z" transform="translate(-132.428 -84.513)" fill="#fff"/><path d="M277.077,101.638c.022.15-.107.172-.172.236a.264.264,0,0,1-.236-.15c-.043-.129.086-.193.15-.236a.228.228,0,0,1,.258.15Z" transform="translate(-243.178 -85.05)" fill="#fff"/><path d="M146.428,101.807c-.021.021.021.043.043.064-.021.129-.107.172-.172.236a.306.306,0,0,1-.258-.129.207.207,0,0,1,.129-.279c.086,0,.215,0,.258.107Z" transform="translate(-140.613 -85.219)" fill="#fff"/><path d="M285.8,102.094c.129-.021.15-.15.279-.193a.311.311,0,0,1,.3.129c.043.15-.064.215-.15.279s-.258-.064-.258.086a.451.451,0,0,1,.172.236c-.021.043-.107.043-.15.021a1.6,1.6,0,0,1-.881-.752c-.043-.107-.279-.193-.15-.3a1.208,1.208,0,0,1,.838.494Z" transform="translate(-249.666 -85.141)" fill="#fff"/><path d="M292.757,101.9a.17.17,0,0,1-.022.236c-.064.129-.236.064-.344.064-.064-.064-.129-.129-.107-.215a.382.382,0,0,1,.172-.15.3.3,0,0,1,.3.064Z" transform="translate(-255.442 -85.313)" fill="#fff"/><path d="M269.974,102.9a1.556,1.556,0,0,1,.258.494c-.021.043-.086.021-.107.021-.408-.236-.945-.494-1.1-.967-.043-.043-.129-.107-.129-.193a1.1,1.1,0,0,1,.838.344.556.556,0,0,1,.236.3Z" transform="translate(-237.086 -85.651)" fill="#fff"/><path d="M143.194,102.472a.2.2,0,0,1-.107.236.264.264,0,0,1-.279-.107c-.086-.129.064-.236.172-.3a.354.354,0,0,1,.215.172Z" transform="translate(-138.067 -85.69)" fill="#fff"/><path d="M279.328,103.783c.021.064-.086.129-.129.172-.107.021-.193.043-.279-.043-.022-.064-.086-.15-.022-.215.15-.172.344-.043.43.086Z" transform="translate(-244.914 -86.722)" fill="#fff"/><path d="M293.248,104.678c.043.15-.064.236-.172.3-.129.043-.215-.043-.3-.107-.064-.064-.021-.15,0-.236a.344.344,0,0,1,.322-.086c.043.043.107.064.15.129Z" transform="translate(-255.804 -87.445)" fill="#fff"/><path d="M249.955,112.827c0,.15-.258.107-.387.215a2.765,2.765,0,0,1-1.268.193v-.064a1.756,1.756,0,0,1,1.655-.344Z" transform="translate(-220.912 -93.897)" fill="#fff"/><path d="M172.051,114.793a.255.255,0,0,1-.172.215.236.236,0,0,1-.215-.129c-.043-.15.064-.215.15-.279a.317.317,0,0,1,.236.193Z" transform="translate(-160.736 -95.347)" fill="#fff"/><path d="M253.273,115.511a.355.355,0,0,1-.172.279c-.107.021-.172-.043-.258-.086-.064-.043-.021-.129-.043-.193a.254.254,0,0,1,.473,0Z" transform="translate(-224.445 -95.936)" fill="#fff"/><path d="M259.783,116.056a2,2,0,0,1-1.053.43l-.666-.021-.064-.043a1.956,1.956,0,0,1,1.762-.43v.064Z" transform="translate(-228.528 -96.417)" fill="#fff"/><path d="M156.448,117.057a.232.232,0,0,1-.15.236.208.208,0,0,1-.15-.387c.129-.086.258.064.3.15Z" transform="translate(-148.463 -97.138)" fill="#fff"/><path d="M159.465,117.672c.043.064-.021.107-.043.15a.193.193,0,0,1-.236,0,.149.149,0,0,1-.064-.215c.043-.064.107-.064.15-.107.086.043.172.086.193.172Z" transform="translate(-150.879 -97.624)" fill="#fff"/><path d="M134.489,119.687c-.129.15-.322-.043-.451-.107-.43-.236-.408-.731-.838-1.01.043-.15.15.021.236-.021a.966.966,0,0,0,.258.129c.408.258.516.645.8,1.01Z" transform="translate(-130.544 -98.415)" fill="#fff"/><path d="M160.2,83a.931.931,0,0,0-.9-.494.873.873,0,0,0-.688.494.6.6,0,0,0,.236.666.173.173,0,0,0,.236-.064c.064-.15-.107-.15-.129-.279a.443.443,0,0,1,.129-.43c.129-.129.322-.064.473-.064a.945.945,0,0,1,.365.344,1.1,1.1,0,0,1,0,.645,1.02,1.02,0,0,1-.752.6c-1.01.15-12.076.107-12.076.107-1.289.129-2.772-.236-3.889.451a1.9,1.9,0,0,0-.9,1.311,9.987,9.987,0,0,0-.945.967l-.043-.043c.064-.3.193-.559.258-.838.172-.236.172-.58.322-.838a6.443,6.443,0,0,1,1.612-2.02c.3-.408.838-.322,1.289-.322a3.156,3.156,0,0,0,1.7.236.112.112,0,0,0,.043-.086c-.172-.15-.451-.215-.645-.387-.494-.236-.945.064-1.461.043-.021-.021-.043-.043-.043-.064a7.823,7.823,0,0,1,1.5-.817,10.034,10.034,0,0,1,1.332-.516c.172,0,.344-.15.516-.043l.645-.172a.126.126,0,0,0,.107.043,5.9,5.9,0,0,1,1.848-.021l.086.064.58.15c.215.021.322.279.537.3.129-.172-.129-.236-.193-.365a1.348,1.348,0,0,1,.817.129l-.129.129c-.064.129.043.236.15.279.086.021.15-.043.215-.064.15-.107-.021-.215.043-.322a11.466,11.466,0,0,1,2.578.731,2.754,2.754,0,0,0,.709.236,2.948,2.948,0,0,0-.924-.494c-.215-.129-.494-.129-.666-.3.043-.064.129-.043.15-.086a1.694,1.694,0,0,0,1.053-.688c.021-.064.15-.043.15-.15-.107-.129-.3.043-.43.021-.516.107-.731.688-1.246.817l-1.869-.451a3.224,3.224,0,0,1-.9-.193l-.688-.064h-1.246c-.021-.021-.043-.043-.043-.064.43-.107.817-.365,1.246-.473l3.245-1.483a6.874,6.874,0,0,0,.924-1.01.216.216,0,0,0-.129-.236.2.2,0,0,0-.236.043c-.15.107,0,.236,0,.387a2.257,2.257,0,0,1-.559.473c-.043-.021-3.352,1.5-3.352,1.5a7.759,7.759,0,0,1-1.483.559l-.709.107a.435.435,0,0,1-.3.279,2.379,2.379,0,0,1-.559.15,12.311,12.311,0,0,0-4.469,2.514,1.814,1.814,0,0,0,.129-.516,1.1,1.1,0,0,0-.129-.537.9.9,0,0,1-.086-.344l-.172.107a1.7,1.7,0,0,0-.107,1.031c.043.215.215.473.043.666a11.5,11.5,0,0,0-1.289,2.364c-.15-.021-.215-.15-.279-.3a4.181,4.181,0,0,0,.859-1.783c.086-.064.021-.215.107-.3-.021-.193.107-.387.021-.559.086-.258-.365-.516-.086-.688l-.236.107c-.516.688.279,1.719-.322,2.364v.043c-.172.215-.258.451-.494.58-.3-.129-.408-.451-.58-.688a1.123,1.123,0,0,1-.107-1.139,2.2,2.2,0,0,0-.107-.988l-.129-.064a1.4,1.4,0,0,0-.172,1.44c.129.215.129.516.322.709a4.238,4.238,0,0,0,.516.9c.043.129-.064.15-.129.215-.129-.086-.107-.279-.236-.365a9.021,9.021,0,0,0-1.547-2.235c-.021-.107-.129-.215-.064-.322a.857.857,0,0,0,.15-.924c-.021-.064-.086-.129-.086-.193l-.193-.15c.021.43-.258.817-.129,1.268v.021a23.539,23.539,0,0,0-4.04-2.45l-.107.3a7.846,7.846,0,0,1,1.311.666,7.434,7.434,0,0,1,1.225.645,8.286,8.286,0,0,1,3.481,4.126c.021.129.129.279.043.408a6.259,6.259,0,0,0-.924-.924,1.785,1.785,0,0,0-.924-1.354c-.172-.279-.58-.3-.881-.387l-4.426-.021c-3.588-.043-6.876.107-10.443.043-.494-.043-1.1-.215-1.246-.752a.892.892,0,0,1,0-.666.728.728,0,0,1,.623-.322c.193.021.322.215.408.344,0,.15-.129.3-.193.43.021.043.064.15.15.107a.64.64,0,0,0,.322-.387c.021-.086.043-.215-.043-.279a.755.755,0,0,0-.58-.494,1.009,1.009,0,0,0-.817.279A.992.992,0,0,0,120.9,83.9a1.69,1.69,0,0,0,1.311.988l11.818.043a25.334,25.334,0,0,1,3.61.107,1.383,1.383,0,0,1,.988.924c-.021.021-.043.021-.086.021a5.257,5.257,0,0,0-3.459-.709,4,4,0,0,0-1.354.279.736.736,0,0,1-.6-.193,2.015,2.015,0,0,0-1.762-.215c0,.043-.021.064.021.086.6-.043.945.473,1.483.516.129.021.215-.107.322-.021a9.96,9.96,0,0,1-1.7.752c-.172-.043-.279-.215-.43-.3-.236-.258-.666-.15-.967-.172-.107.021-.215-.043-.279,0a1.217,1.217,0,0,0,.516.408c.3.129.666-.021.945.172-.064.086-.172.107-.258.172-.58.215-1.053.731-1.676.688a2.256,2.256,0,0,1-1.8-.58,1.225,1.225,0,0,0-1.225-.709c-.043.021-.086.021-.064.086.258.15.473.473.731.666.172.215.494,0,.666.236a2.184,2.184,0,0,0,.8.344,2.963,2.963,0,0,0,.623.172l-.086.043a10.04,10.04,0,0,1-3.61.344,9.1,9.1,0,0,0-1.074-.107.792.792,0,0,0,.3.172.818.818,0,0,1-.322.107,1.563,1.563,0,0,0-.451.129,1.021,1.021,0,0,0-.516.129,2.712,2.712,0,0,1-.688.559c0,.043-.021.129.043.129.236-.107.516-.021.752-.129.408-.043.623-.473.945-.666a1.651,1.651,0,0,1,1.246-.15c.236.064-.021.15.043.322.107.086.172.193.322.15a.3.3,0,0,1,.086-.064.306.306,0,0,0,.021-.3c.172-.107.408.021.58-.064.451-.021.924-.107,1.375-.129.064-.021.15-.086.236-.021-.043.107-.15.107-.107.236.021.107.15.15.236.193.129-.043.236-.129.172-.3-.021-.086-.129-.107-.172-.129.258-.129.537-.15.8-.279a4.834,4.834,0,0,0,.516-.172c.15-.021.3-.15.43-.107a2.377,2.377,0,0,1-.258.58,2.909,2.909,0,0,0,0,2.127c.043.021.043-.021.064-.021a2.9,2.9,0,0,1,.107-2c.172-1.031,1.246-1.354,2-1.74l.043.043a3.511,3.511,0,0,0-.451,1.7c.021.107-.043.215,0,.3a1.275,1.275,0,0,0,.451-.559c.086-.559-.236-1.225.322-1.633a8.78,8.78,0,0,1,3.094-.924c.043.043.129-.021.129.043-.236.279-.6.516-.709.859a2.784,2.784,0,0,0-.215,2.127c.107.387-.215.58-.387.881a2.329,2.329,0,0,0-.172.408l.236.021a1.2,1.2,0,0,0,.408-.817.3.3,0,0,0,.236.236c.086-.129-.064-.236-.086-.365.193-.107.279.129.43.193a3,3,0,0,0,.731.172l.086-.086a1.5,1.5,0,0,0-1.268-.516,2.533,2.533,0,0,1-.215-1.4,2.359,2.359,0,0,1,.236-.752,2.412,2.412,0,0,1,.344-.473,1.594,1.594,0,0,1,.774-.408h.043a.075.075,0,0,0,.021.043c-.322.258-.365.6-.559.924a1.024,1.024,0,0,0-.107,1.074c.064.15.043.408.215.516a2.825,2.825,0,0,0,.258-.752c-.043-.408-.279-.774-.043-1.182a1.042,1.042,0,0,1,.666-.537,3.686,3.686,0,0,1,1.826.537c.129.086.322.15.344.322a1.054,1.054,0,0,1-.451.817,1.012,1.012,0,0,1-1.1-.021.866.866,0,0,1-.193-.752.479.479,0,0,1,.537-.193c.129.064.236.193.387.107a.14.14,0,0,0,.043-.193c-.129-.064-.172-.258-.365-.279a.781.781,0,0,0-.666.129.88.88,0,0,0-.279.859,1.056,1.056,0,0,0,.752.774,1.456,1.456,0,0,0,1.762-1.031,3.3,3.3,0,0,1,1.246,1.612,3.076,3.076,0,0,1,.021.623l.43.043a.366.366,0,0,1,.043-.3,3.627,3.627,0,0,1,1.246-2c.215-.129.15.15.215.236a1.561,1.561,0,0,0,1.053.924,1.34,1.34,0,0,0,1.311-.43c.15-.3.344-.731.086-1.031a.834.834,0,0,0-.666-.322.793.793,0,0,0-.666.451c0,.107-.021.215.064.258.043,0,.15.021.172-.064.021-.193.172-.279.322-.365a.417.417,0,0,1,.387.064.708.708,0,0,1,.172.473.718.718,0,0,1-.408.58,1.18,1.18,0,0,1-1.16-.107,2.3,2.3,0,0,1-.344-.537c-.021-.193-.107-.365,0-.559a3.835,3.835,0,0,1,1.74-.6,1.154,1.154,0,0,1,.645.408c.559.58-.129,1.4.258,2.041.15-.021.15-.215.215-.344a2.261,2.261,0,0,0-.15-1.354,3.188,3.188,0,0,0-.451-.731.366.366,0,0,1,.15-.021,2.591,2.591,0,0,1,.731.645,3.334,3.334,0,0,1,.473,2c-.086.365-.494.537-.8.666a1.111,1.111,0,0,0-.322.387c.15.086.344,0,.494-.064.236-.086.365-.387.516-.516a.079.079,0,0,1,.021.064c.021.129-.064.322.064.365a4.679,4.679,0,0,0,.107-.623,1.473,1.473,0,0,1,.236.6c.107.215.3.516.58.559.064-.107-.021-.215-.043-.322-.043-.3-.3-.473-.451-.688-.43-.58-.236-1.5-.559-2.17a2.469,2.469,0,0,0-.666-.9l.043-.043a6.661,6.661,0,0,1,1.633.3c.666.322,1.633.258,1.955,1.117a2.966,2.966,0,0,0,.688,1.311l.043-.021a.551.551,0,0,0,0-.451c-.064-.623-.6-.752-.881-1.268l.043-.043a6.008,6.008,0,0,1,.881.279,2.66,2.66,0,0,1,1.783,2.213,4.776,4.776,0,0,1-.451,2.084c-.043.107-.215.215-.107.3.129-.107.15-.258.236-.365a3.422,3.422,0,0,0,.408-2.45c-.021-.15-.193-.279-.107-.451a.409.409,0,0,0,.215.107c.064-.043.172-.043.236-.129.021-.064.064-.15,0-.215-.064-.107-.236-.107-.344-.086a.628.628,0,0,0-.15.258,2.6,2.6,0,0,0-.43-.645l.021-.043c.537.193,1.053.451,1.612.6a.918.918,0,0,0,.43.129,11.005,11.005,0,0,0,1.5.387c.365-.043.666.129,1.031.043v-.021l-.021.021c-.129-.172-.43-.021-.58-.129a8.836,8.836,0,0,1-2.385-.6c.021-.043.064-.021.107-.021a.294.294,0,0,0,.193-.3.319.319,0,0,0-.279-.129c-.064.043-.172.129-.172.215a.346.346,0,0,0,.172.236.161.161,0,0,1-.107.021c-.387-.172-.731-.322-1.1-.494-.129-.021-.236-.129-.387-.15-.279-.129-.559-.279-.838-.387a18.851,18.851,0,0,0-2.471-.924c-.172-.043-.344-.107-.516-.15-.3-.086-.6-.15-.9-.236a4.612,4.612,0,0,0-3.309.279c-.15-.043-.236.193-.3.043a1.714,1.714,0,0,1,1.655-.924c4.878-.043,9.433-.086,14.225-.15a1.554,1.554,0,0,0,1.4-.688A1.382,1.382,0,0,0,160.2,83Zm-19.317,4.512c-.043.15-.15.279-.129.43l-.043.021c.043-.193-.15-.3-.107-.494a1.924,1.924,0,0,1-.172-.494c-.107-.193.086-.279.172-.408.172.064.236.236.344.387.086.193-.086.344-.064.559Z" transform="translate(-120.84 -66.451)" fill="#fff"/><path d="M268.91,119.236c0,.043.064.043.043.107a2.478,2.478,0,0,1-1.633.516.4.4,0,0,1-.15.043.053.053,0,0,1-.021-.086,1.831,1.831,0,0,1,1.762-.58Z" transform="translate(-235.699 -98.952)" fill="#fff"/><path d="M264.608,119.78a.26.26,0,0,1-.193.322.354.354,0,0,1-.258-.193c-.043-.107.043-.15.086-.215.086-.086.322-.086.365.086Z" transform="translate(-233.353 -99.302)" fill="#fff"/><path d="M157.33,120.007a.236.236,0,0,1-.064.258c-.043.064-.15.064-.215.064a.238.238,0,0,1-.15-.193.291.291,0,0,1,.15-.236.314.314,0,0,1,.279.107Z" transform="translate(-149.152 -99.508)" fill="#fff"/><path d="M143.335,121.117v.086a.939.939,0,0,1-.8-.193,1.578,1.578,0,0,0-.645-.6c0-.043-.064-.086,0-.107.623,0,.988.494,1.44.817Z" transform="translate(-137.349 -99.823)" fill="#fff"/><path d="M279.446,120.265c-.279.408-.516.924-1.01,1.117-.086,0-.15.129-.236.043a2.186,2.186,0,0,1,1.074-1.16c.043,0,.129-.021.172,0Z" transform="translate(-244.387 -99.788)" fill="#fff"/><path d="M160.651,120.514c.021.129-.086.15-.172.236-.107.021-.15-.064-.215-.129-.043-.129.064-.172.129-.236a.245.245,0,0,1,.258.129Z" transform="translate(-151.785 -99.886)" fill="#fff"/><path d="M287.352,121.164c-.107.15-.064.387-.172.559-.236.279-.451.6-.838.666-.064-.129.086-.236.15-.344a1.815,1.815,0,0,1,.8-.945l.064.064Z" transform="translate(-250.768 -100.451)" fill="#fff"/><path d="M129.727,121.576a.262.262,0,0,1,0,.279.256.256,0,0,1-.279.043.247.247,0,0,1-.107-.3c.086-.107.3-.172.387-.021Z" transform="translate(-127.5 -100.755)" fill="#fff"/><path d="M126.489,122.19a.506.506,0,0,1,.043.172.3.3,0,0,1-.172.15.26.26,0,0,1-.279-.15.219.219,0,0,1,.129-.258.211.211,0,0,1,.279.086Z" transform="translate(-124.95 -101.219)" fill="#fff"/><path d="M132.973,122.545c.021.107.043.279-.107.3-.172.064-.258-.043-.365-.15a.264.264,0,0,1,.15-.236.3.3,0,0,1,.322.086Z" transform="translate(-129.995 -101.509)" fill="#fff"/><path d="M142.343,123.286c-.021.086.021.215-.086.236a.235.235,0,0,1-.236.021c-.021-.064-.15-.129-.086-.215a.334.334,0,0,1,.172-.129c.086.043.193,0,.236.086Z" transform="translate(-137.388 -102.099)" fill="#fff"/><path d="M294.916,123.372c-.043.086-.086.193-.172.193-.107-.021-.215-.021-.279-.129a.188.188,0,0,1,.15-.236.3.3,0,0,1,.3.172Z" transform="translate(-257.149 -102.099)" fill="#fff"/><path d="M284.237,123.593c.022.107-.107.172-.15.215a.3.3,0,0,1-.387-.193.276.276,0,0,1,.215-.215.346.346,0,0,1,.322.193Z" transform="translate(-248.706 -102.256)" fill="#fff"/><path d="M291.522,123.736a.264.264,0,0,1-.107.215.3.3,0,0,1-.3-.043c-.107-.107-.022-.193.043-.258.129-.064.322-.064.365.086Z" transform="translate(-254.486 -102.421)" fill="#fff"/><path d="M128.289,124.687a.25.25,0,0,1-.15.3.259.259,0,0,1-.258-.172.219.219,0,0,1,.129-.258c.107-.043.193.043.279.129Z" transform="translate(-126.363 -103.157)" fill="#fff"/><path d="M281.675,125.307a.278.278,0,0,1-.172.322c-.107.021-.15-.021-.236-.086-.043-.064-.107-.193-.021-.258.107-.193.344-.107.43.021Z" transform="translate(-246.745 -103.648)" fill="#fff"/><path d="M158.693,125.763c.043.129-.107.15-.129.236-.043.021-.15.043-.172-.021a.289.289,0,0,1-.107-.258c.064-.043.086-.107.15-.129.129-.021.172.107.258.172Z" transform="translate(-150.235 -103.975)" fill="#fff"/><path d="M293.851,126.172c.021.086-.043.129-.064.193a.318.318,0,0,1-.279.043c-.107-.064-.107-.15-.107-.279.064-.043.086-.107.172-.129.107,0,.258.064.279.172Z" transform="translate(-256.321 -104.298)" fill="#fff"/><path d="M288.074,126.278c.043.15-.086.215-.172.258-.043.021-.129-.021-.129.043a2.722,2.722,0,0,1,.752.645v.107a1.706,1.706,0,0,1-1.2-.473c-.086-.064-.236-.064-.322-.15.15-.15.451-.107.666-.107.15-.172-.172-.3.022-.451.064-.021.129-.086.215-.064a.7.7,0,0,1,.172.193Z" transform="translate(-251.297 -104.36)" fill="#fff"/><path d="M267.239,126.485c.022.064-.043.129-.064.193a.228.228,0,0,1-.258.043c-.064-.086-.15-.15-.129-.279a.248.248,0,0,1,.451.043Z" transform="translate(-235.425 -104.546)" fill="#fff"/><path d="M140.914,128.312a.252.252,0,0,1-.215.193c-.107-.021-.172-.043-.215-.15-.021-.086.043-.129.064-.193.15-.086.387-.021.365.15Z" transform="translate(-136.26 -105.965)" fill="#fff"/><path d="M142.681,128.3c0,.172-.172.279-.236.43a1.248,1.248,0,0,1-.967.817c-.043-.107.15-.236.215-.344a2.545,2.545,0,0,1,.945-.9Z" transform="translate(-137.038 -106.104)" fill="#fff"/><path d="M265.663,128.434c.021.129-.107.236-.215.279s-.193-.043-.258-.107c-.107-.107-.043-.193.021-.3.129-.129.344,0,.451.129Z" transform="translate(-234.128 -106.065)" fill="#fff"/><path d="M269.294,128.992a.366.366,0,0,1-.215.279c-.022-.043-.086-.021-.129-.021a.259.259,0,0,1-.15-.215c.064-.064.086-.15.172-.172s.279-.021.322.129Z" transform="translate(-237.007 -106.537)" fill="#fff"/><path d="M154.4,128.893a.259.259,0,0,1-.172.258c-.107.021-.172-.064-.236-.15-.021-.107.086-.193.15-.236.129-.043.172.064.258.129Z" transform="translate(-146.865 -106.46)" fill="#fff"/><path d="M158.141,129.053a.3.3,0,0,1-.236.215.259.259,0,0,1-.215-.15c-.021-.129.086-.193.172-.236a.223.223,0,0,1,.279.172Z" transform="translate(-149.77 -106.556)" fill="#fff"/><path d="M279.51,130.014c.064.043.172.107.15.193-.193.086-.344-.129-.537-.172a2.212,2.212,0,0,1-.623-.988c.107-.107.236.021.322.064a2.408,2.408,0,0,1,.688.9Z" transform="translate(-244.623 -106.658)" fill="#fff"/><path d="M283.5,129.37a.321.321,0,0,1-.022.279c-.064.129-.236.107-.344.064-.064-.064-.172-.172-.107-.279.043-.107.15-.129.236-.15s.15.043.236.086Z" transform="translate(-248.162 -106.873)" fill="#fff"/><path d="M163.523,130.835c.021.107.043.236-.086.3a.261.261,0,0,1-.3-.15c-.064-.15.064-.172.15-.236.086-.043.15.021.236.086Z" transform="translate(-154.034 -108.016)" fill="#fff"/><path d="M268.435,132.907a1.749,1.749,0,0,1,.322.859c-.043.086.064.172-.021.236h-.043a2.867,2.867,0,0,1-.881-1.483.1.1,0,0,1-.043-.129c.129-.107.215.107.322.15l.344.365Z" transform="translate(-236.191 -109.292)" fill="#fff"/><path d="M166.077,132.483c-.021.021,0,.021.021.021a1.578,1.578,0,0,1-1.719.215.082.082,0,0,1,.064-.107,2.613,2.613,0,0,1,1.074-.236l.559.107Z" transform="translate(-155.019 -109.298)" fill="#fff"/><path d="M153.669,132.886c-.408.258-.8.752-1.289.881-.107.043-.15.172-.279.107a1.794,1.794,0,0,1,1.569-1.074v.086Z" transform="translate(-145.383 -109.637)" fill="#fff"/><path d="M265.951,135.407a.183.183,0,0,1-.107.258.169.169,0,0,1-.236,0c-.107-.043-.107-.15-.107-.236a.3.3,0,0,1,.172-.129c.129,0,.215,0,.279.107Z" transform="translate(-234.416 -111.599)" fill="#fff"/><path d="M257.09,135.838a.651.651,0,0,1-.43.322,1.8,1.8,0,0,1-1.16-.15c.021-.107.129-.064.193-.129a2.709,2.709,0,0,1,1.246-.064.107.107,0,0,1,.15.021Z" transform="translate(-226.565 -111.966)" fill="#fff"/><path d="M157.744,136.993c-.043.043-.043.15-.15.193a.234.234,0,0,1-.236-.043c-.022-.064-.107-.129-.043-.215.021-.086.129-.107.193-.129a.217.217,0,0,1,.236.193Z" transform="translate(-149.458 -112.777)" fill="#fff"/><path d="M161.12,137.485c-.043.064-.064.193-.172.236a.239.239,0,0,1-.236-.086.3.3,0,0,1-.043-.236c.021-.064.107-.064.172-.107.107-.021.215.107.279.193Z" transform="translate(-152.104 -113.161)" fill="#fff"/><path d="M264.621,138.084c.021.107-.043.15-.086.236a.178.178,0,0,1-.258.043c-.086-.021-.107-.107-.15-.172-.064-.107.043-.15.086-.236a.248.248,0,0,1,.408.129Z" transform="translate(-233.322 -113.631)" fill="#fff"/><path d="M267.517,138.271a.255.255,0,0,1,.021.172c-.064.064-.129.215-.258.15-.064.021-.107-.064-.15-.107-.043-.129-.021-.3.15-.322.086-.043.172.064.236.107Z" transform="translate(-235.681 -113.84)" fill="#fff"/><path d="M158.947,139.672a.306.306,0,0,1-.129.322c-.129.021-.3.021-.344-.129a.329.329,0,0,1,.15-.365.3.3,0,0,1,.322.172Z" transform="translate(-150.382 -114.897)" fill="#fff"/><path d="M160.31,140.1a1.133,1.133,0,0,1-.43.945c-.193.043-.387.215-.58.107v-.064a8.827,8.827,0,0,1,1.01-.988Z" transform="translate(-151.036 -115.368)" fill="#fff"/><path d="M255.951,140.815c.043.064-.043.129-.064.193-.064.086-.215.043-.3.021a.173.173,0,0,1-.064-.236c.021-.064.107-.107.15-.129.129-.043.215.064.279.15Z" transform="translate(-226.565 -115.803)" fill="#fff"/><path d="M167.4,141.515c.172.279.064.666.172.967-.215.021-.3-.215-.43-.322a3.7,3.7,0,0,1-.344-1.289.053.053,0,0,1,.086-.021,2.593,2.593,0,0,1,.451.516c-.021.086.086.086.064.15Z" transform="translate(-156.924 -115.945)" fill="#fff"/><path d="M258.872,141.288c0,.107-.107.129-.172.193a.58.58,0,0,1-.236-.107c-.043-.129.064-.15.129-.215a.17.17,0,0,1,.279.129Z" transform="translate(-228.884 -116.17)" fill="#fff"/><path d="M264.425,142.9c0,.043-.021.107-.064.086h-.043c-.344-.322-.709-.666-.645-1.16l.064-.021a1.707,1.707,0,0,1,.688,1.1Z" transform="translate(-232.976 -116.703)" fill="#fff"/><path d="M261.165,144.479c.022.107-.043.172-.107.236-.129.043-.344.021-.365-.15-.021-.129.129-.193.172-.236a.224.224,0,0,1,.3.15Z" transform="translate(-230.64 -118.673)" fill="#fff"/><path d="M255.588,145.358c-.172.451-.623.688-.945,1.031-.064-.043-.043-.129-.021-.193a1.667,1.667,0,0,1,.945-1.1c.172.021-.021.15.021.258Z" transform="translate(-225.858 -119.294)" fill="#fff"/><path d="M261.82,147.514c0,.107-.107.15-.172.215a.375.375,0,0,1-.258-.129c-.021-.129.086-.15.15-.215a.26.26,0,0,1,.279.129Z" transform="translate(-231.187 -121.084)" fill="#fff"/><path d="M207.111,44.7a.3.3,0,1,1,0,.6H203.5a.3.3,0,1,1,0-.6Zm-2.557.516c.344,0,.021-.43-.172-.43h-.344c-.344,0-.021.43.172.43Zm1.483,0c.344,0,.022-.43-.172-.43h-.344c-.344,0-.021.43.172.43Zm1.1-.43H207c-.344,0-.043.43.129.43.236,0,.236-.43,0-.43Z" transform="translate(-185.503 -40.467)" fill="#fff"/><path d="M218.958,63.9l.688.258.666-.258-.258,1.01.537-.107-.193.623.193.58-.473-.129.215,1.1-.666-.258-.688.258.279-1.1-.559.15.15-.623-.15-.58.516.086-.258-1.01Zm1.01,1.826c.15,0,.172-.215.172-.387,0-.408-.322,0-.494-.387-.129.322-.473.021-.473.387,0,.236,0,.408.236.408h.559Zm-.666-.387c0,.15.215.043.365.043s.365.107.365-.043c0-.236-.215-.15-.365-.15-.15.021-.365-.064-.365.15Z" transform="translate(-197.672 -55.541)" fill="#fff"/><path d="M212.007,69.151v-.129L211.9,69l.086-.086-.064-.107.129.021.064-.129.064.129.129-.021-.064.107.107.086-.129.021v.129l-.107-.086Z" transform="translate(-192.334 -59.31)" fill="#fff"/><path d="M209.507,72.351v-.129L209.4,72.2l.086-.086-.064-.107.129.021.064-.129.086.129.107-.021-.043.107.086.086-.129.021v.129l-.107-.086Z" transform="translate(-190.371 -61.822)" fill="#fff"/><path d="M213.707,71.951v-.129L213.6,71.8l.086-.086-.043-.107.107.021.064-.129.086.107h.107l-.043.107.086.086-.107.021v.129l-.129-.086Z" transform="translate(-193.668 -61.508)" fill="#fff"/><path d="M214.364,75.058v-.064l-.064-.021.064-.043-.043-.064h.064l.043-.064.043.064h.064l-.021.064.043.043-.064.021v.064l-.064-.043Z" transform="translate(-194.218 -64.099)" fill="#fff"/><path d="M209.993,75.874v-.215l-.193-.043.15-.15-.086-.172.193.021.129-.215.107.215.215-.021-.086.172.15.15-.193.043v.215l-.193-.129Z" transform="translate(-190.685 -64.335)" fill="#fff"/><path d="M205.791,25l.43,1.053,1.074-.3-.537.988.924.645-1.117.193.064,1.139-.838-.774-.838.774.064-1.139-1.117-.193.924-.645-.537-1.01,1.074.322Z" transform="translate(-186.053 -25)" fill="#fff"/><path d="M188.455,134.721c-.129.043-.172.086-.15.215l.15.645a.6.6,0,0,1-.043.43.754.754,0,0,1-.43.258,1.039,1.039,0,0,1-.516,0c-.129-.043-.193-.107-.258-.322l-.15-.666c-.043-.172-.107-.15-.236-.129l-.021-.043.817-.193.021.043c-.15.043-.236.064-.193.236l.15.666a.344.344,0,0,0,.43.322c.43-.107.365-.408.322-.537l-.15-.623c-.021-.129-.064-.193-.279-.15l-.021-.043.537-.129.021.021Z" transform="translate(-172.627 -111.128)" fill="#fff"/><path d="M196.385,133.851a.559.559,0,0,0-.559-.279.238.238,0,0,0-.215.258c.021.107.086.15.3.193l.387.064a.421.421,0,0,1,.344.322c.043.172-.064.451-.516.559a4.126,4.126,0,0,1-.43.021c-.043.021-.064.043-.064.086l-.064.021-.107-.494.064-.021a.519.519,0,0,0,.6.322c.3-.064.258-.279.258-.3-.021-.129-.15-.15-.322-.193l-.172-.021c-.451-.064-.494-.258-.516-.344-.021-.129-.021-.408.451-.516a3.279,3.279,0,0,1,.387-.021c.064-.022.064-.043.064-.086l.064-.021.107.43-.064.021Z" transform="translate(-179.354 -110.108)" fill="#fff"/><path d="M202.811,133.94l-.881.086v-.043c.172-.021.236-.043.215-.215l-.107-1.1c-.172.021-.43.064-.451.387h-.064l-.021-.408,1.483-.15.043.408h-.064a.409.409,0,0,0-.516-.3l.107,1.1c.022.172.086.172.258.172v.064Z" transform="translate(-184.168 -109.401)" fill="#fff"/><path d="M210.9,133.94h-.516l-.494-.666h-.064v.408c0,.172.043.172.215.193v.043l-.838-.021v-.043c.172-.021.215-.021.215-.193l.021-.924c0-.172-.064-.193-.215-.193V132.5l.8.021c.172,0,.688.021.688.387,0,.258-.258.322-.387.344l.494.6a.118.118,0,0,0,.107.043l-.021.043Zm-1.074-.752c.322,0,.451-.043.451-.3,0-.215-.086-.3-.3-.3-.129,0-.15.021-.15.086v.516Z" transform="translate(-190.214 -109.401)" fill="#fff"/><path d="M218.576,134.526l-.8-.107v-.043c.15,0,.193.021.215-.064a.7.7,0,0,0-.086-.279l-.559-.064c-.086.15-.129.215-.15.258,0,.086.107.107.193.107v.043l-.494-.064v-.043c.129,0,.172-.064.279-.215l.688-1.053h.064l.408,1.16c.086.236.107.3.236.322v.043Zm-.688-.58-.193-.537-.3.473.494.064Z" transform="translate(-196.259 -109.794)" fill="#fff"/><path d="M226.218,135.533l-1.418-.258v-.043c.129,0,.215.021.236-.107l.172-.988c.021-.129-.064-.15-.193-.193V133.9l.859.15v.043c-.172-.021-.258-.043-.279.15l-.172.967c-.021.107.043.129.193.15a.629.629,0,0,0,.688-.279l.064.021-.15.43Z" transform="translate(-202.462 -110.5)" fill="#fff"/><path d="M232.738,136.847l-.838-.172.021-.043c.129.021.236.021.258-.107l.193-.988c.021-.129-.086-.172-.193-.193V135.3l.838.172v.043c-.107-.022-.236-.043-.258.086l-.193.988c-.021.129.064.15.193.193l-.021.064Z" transform="translate(-208.036 -111.599)" fill="#fff"/><path d="M237.755,138l-.8-.086v-.043c.15,0,.193,0,.215-.064a1.391,1.391,0,0,0-.086-.279l-.559-.064c-.086.15-.129.215-.129.258,0,.086.107.107.193.107v.043l-.494-.043v-.043c.129,0,.172-.064.258-.215l.666-1.074h.064l.43,1.139c.086.236.129.3.236.322V138Zm-.709-.559-.193-.537-.279.473.473.064Z" transform="translate(-211.334 -112.542)" fill="#fff"/><path d="M211.081,63.751c0-.494-.279-.021-.43-.451-.107.365-.451.064-.451.451a.311.311,0,0,0,.107.279v.15a.057.057,0,0,0,.064.064h.537a.057.057,0,0,0,.064-.064v-.15a.371.371,0,0,0,.107-.279Zm-.43.107c-.15,0-.344.107-.344-.064,0-.236.172-.193.322-.193s.365-.064.365.193c0,.172-.193.064-.344.064Z" transform="translate(-190.999 -55.07)" fill="#fff"/><path d="M233.636,92.587a.2.2,0,1,0-.236-.193.234.234,0,0,0,.236.193Z" transform="translate(-209.214 -77.76)" fill="#fff"/><path d="M229.107,59.5a.99.99,0,0,0-.107.215.109.109,0,1,0,.215,0l-.107-.215Z" transform="translate(-205.759 -52.087)" fill="#fff"/><path d="M195.007,59.5a.99.99,0,0,0-.107.215.109.109,0,1,0,.215,0l-.107-.215Z" transform="translate(-178.986 -52.087)" fill="#fff"/><path d="M203.507,59.5a.99.99,0,0,0-.107.215.109.109,0,1,0,.215,0l-.107-.215Z" transform="translate(-185.66 -52.087)" fill="#fff"/><path d="M212.007,59.5a.99.99,0,0,0-.107.215.109.109,0,1,0,.215,0c.021,0-.107-.215-.107-.215Z" transform="translate(-192.334 -52.087)" fill="#fff"/><path d="M220.607,59.5a.99.99,0,0,0-.107.215.109.109,0,1,0,.215,0l-.107-.215Z" transform="translate(-199.086 -52.087)" fill="#fff"/><path d="M195.007,71.3a.99.99,0,0,1,.107.215.12.12,0,0,1-.107.129c-.064,0-.107-.043-.107-.129a2,2,0,0,1,.107-.215Z" transform="translate(-178.986 -61.351)" fill="#fff"/><path d="M195.007,82.6a.99.99,0,0,1,.107.215.109.109,0,1,1-.215,0l.107-.215Z" transform="translate(-178.986 -70.223)" fill="#fff"/><path d="M196.4,91.7a.99.99,0,0,1,.107.215.109.109,0,1,1-.215,0c-.021-.021.107-.215.107-.215Z" transform="translate(-180.077 -77.368)" fill="#fff"/><path d="M203.507,96.5a.99.99,0,0,1,.107.215.12.12,0,0,1-.107.129c-.064,0-.107-.043-.107-.129a2,2,0,0,1,.107-.215Z" transform="translate(-185.66 -81.137)" fill="#fff"/><path d="M229.607,71.3a.99.99,0,0,0-.107.215.12.12,0,0,0,.107.129c.064,0,.107-.043.107-.129a2,2,0,0,0-.107-.215Z" transform="translate(-206.152 -61.351)" fill="#fff"/><path d="M229.607,82.6a.99.99,0,0,0-.107.215.109.109,0,1,0,.215,0l-.107-.215Z" transform="translate(-206.152 -70.223)" fill="#fff"/><path d="M228.207,91.7a.99.99,0,0,0-.107.215.109.109,0,1,0,.215,0,2,2,0,0,0-.107-.215Z" transform="translate(-205.053 -77.368)" fill="#fff"/><path d="M221.007,96.5a.99.99,0,0,0-.107.215.12.12,0,0,0,.107.129c.064,0,.107-.043.107-.129a2,2,0,0,0-.107-.215Z" transform="translate(-199.4 -81.137)" fill="#fff"/><path d="M212.307,101.5a.99.99,0,0,0-.107.215.12.12,0,0,0,.107.129c.064,0,.107-.043.107-.129l-.107-.215Z" transform="translate(-192.569 -85.062)" fill="#fff"/><path d="M220.162,83.153c.021.043.086.043.15.021l.064-.193c0-.021-.086-.086-.129-.086-.193.043-.408.064-.516.258a.364.364,0,0,0,.193.3c.064-.021.086.043.129.086.021.064-.021.107-.086.107-.129-.15-.387.043-.494-.129.043-.172.129-.365-.021-.537.021-.043.064-.064.043-.107-.064-.172-.236-.043-.344-.043a.423.423,0,0,0-.408.215.643.643,0,0,0,.086.172c.043-.021.064,0,.086.043l-.107.064a.158.158,0,0,1,.043.129c-.086.043-.172-.086-.193-.129,0-.086.021-.258-.107-.279a.552.552,0,0,0-.107.043.429.429,0,0,0-.043.193.874.874,0,0,0,.043.215s.365.258.43.43c-.107.215-.107.494-.344.623-.064.043-.064.107-.064.193l.064.021c.15-.086.43-.107.408-.365a.969.969,0,0,1,.215-.3.245.245,0,0,1,.258.129.45.45,0,0,1-.3.344.129.129,0,0,0-.021.086c.043.086.172.043.236.043.193-.129.279-.365.451-.43.021.107-.236.15-.064.258.107-.021.236.021.322-.129-.086-.193.279-.3.064-.473,0-.172.193-.236.172-.43-.064-.193-.279-.193-.344-.365a.447.447,0,0,1,.236.021Z" transform="translate(-197.437 -70.368)" fill="#fff"/><path d="M186.536,92.987a.2.2,0,1,0-.236-.193.219.219,0,0,0,.236.193Z" transform="translate(-172.234 -78.075)" fill="#fff"/><path d="M131.215,125.13a.215.215,0,1,0-.215-.215.2.2,0,0,0,.215.215Z" transform="translate(-128.817 -103.277)" fill="#fff"/><path d="M167.064,134.463h0l-.021-.021h0v.021H167v-.021h.043l.021.021Zm-.043-.021Z" transform="translate(-157.081 -110.912)" fill="#fff"/><path d="M167.243,134.365h0c-.021-.021-.021,0-.021,0h.021c0,.021,0,.021-.021.021H167.2v-.021h0a.021.021,0,0,0,.021.021c.021.021.021,0,.021-.021Z" transform="translate(-157.238 -110.858)" fill="#fff"/><path d="M167.486,134.4h0l-.021.043h0l-.021-.021h0l-.021.021h0l-.021-.043h.021v.021h0V134.4h.043v.021h0l.021-.021Z" transform="translate(-157.395 -110.893)" fill="#fff"/><path d="M167.8,134.443h0v-.021a.021.021,0,0,1,.043,0c-.021,0-.021.021-.043.021Zm0-.021h0v0Z" transform="translate(-157.709 -110.893)" fill="#fff"/><path d="M167.941,134.321h0c.021,0,.021,0,.021.021a.021.021,0,0,1-.021.021h0c-.021-.021-.021-.021,0-.043v0h0l.021-.021-.021.021Z" transform="translate(-157.808 -110.814)" fill="#fff"/><path d="M201.466,58.2H193v6.468a1.543,1.543,0,0,0,.666,1.418l3.266,2.063a.361.361,0,0,0,.3.129.356.356,0,0,0,.258-.107l3.309-2.106a1.543,1.543,0,0,0,.666-1.418V58.2Zm-.258,6.554a1.389,1.389,0,0,1-.559,1.117l-3.18,2.02h-.021a.451.451,0,0,1-.236.086.611.611,0,0,1-.258-.086l-3.18-2.02a1.526,1.526,0,0,1-.559-1.117V58.415h7.993v6.339Z" transform="translate(-177.495 -51.066)" fill="#fff"/><path d="M218,101.943l.107-.043a.126.126,0,0,0-.107.043Z" transform="translate(-197.123 -85.376)" fill="#fff"/><path d="M182.076,138.332l-.8.086v-.043c.15-.021.193-.043.193-.107s-.107-.193-.15-.258l-.559.064a2.745,2.745,0,0,0-.086.279c0,.086.129.064.215.064v.043l-.494.064v-.043c.129-.021.15-.107.215-.279l.408-1.2h.064l.666,1.031c.129.215.193.279.3.258l.022.043Zm-.8-.387-.3-.473-.172.537.473-.064Z" transform="translate(-167.602 -112.934)" fill="#fff"/><path d="M185.037,126.224a1.235,1.235,0,0,0-.817-.752,1.048,1.048,0,0,0-1.053.279c-.43.344-.129.945-.129,1.418,0,.107.021.172-.086.215-1.762-.15-3.4-.6-5.157-.774-.408-.064-.8-.043-1.182-.129l-.494-.064a20.154,20.154,0,0,0-4.448.494c-.3.107-.645.129-.945.236-.215-.043-.408.129-.6.064l-.408.086h-.129c-.193-.494.387-.817.215-1.289a.854.854,0,0,0-.838-.494,1.048,1.048,0,0,0-.967.494c-.279.6.064,1.246.172,1.848-.021.193.193.408,0,.58a1.652,1.652,0,0,0-1.375-.279c-.15.064-.408-.021-.494.15a3.485,3.485,0,0,0,1.762.215c.064-.021.129-.043.172.021.043.322-.064.752.129,1.031a1.248,1.248,0,0,0,.945.408,15.031,15.031,0,0,0,3.137-.623,2.773,2.773,0,0,1,.451-.107,8.957,8.957,0,0,1,1.719-.236,2.863,2.863,0,0,0-.516,1.1c-.15.322.258.387.387.559a7.156,7.156,0,0,0-.988.516,17.579,17.579,0,0,0-2.17.344c-.021.15.258.107.279.279-.043.107-.15.129-.236.193-.021.064,0,.086.064.107.064-.086.236-.021.3-.107.236,0,.451-.064.688-.086a3.106,3.106,0,0,0,.623-.236c.258-.064.408-.236.666-.322.365,0,.688-.129,1.031-.15v.064c-.279.451-.58.924-.859,1.354a.143.143,0,0,0,.086.193.7.7,0,0,0,.473-.064,12.8,12.8,0,0,0,.688-1.311,1.82,1.82,0,0,1,.688-.924c.043-.021.129-.107.172-.021a5.488,5.488,0,0,0-.58.859,1,1,0,0,0,.172,1.053c.15.129.365.086.559.107.473-.236,1.074.15,1.44-.322.215-.043.258.215.387.344.215.064.43.279.623.129a1.252,1.252,0,0,0-.236-.387c-.15-.258-.322-.473-.451-.688a2.04,2.04,0,0,1-.193-.451,4.783,4.783,0,0,0,.666.258,3.893,3.893,0,0,1,.666.193,2.541,2.541,0,0,0,.6.473c.3.15.645.172.967.3.129.021.3.107.387,0a.334.334,0,0,0-.172-.129c-.043-.15.215-.064.3-.193a.144.144,0,0,0-.15-.086c-.172-.086-.6-.129-.731-.193a3.265,3.265,0,0,1-.43-.129c-.731,0-1.139-.666-1.719-.9.129-.129.344-.215.43-.408a.685.685,0,0,0,.043-.645c-.107-.387-.6-.322-.881-.537l.043-.043a5.215,5.215,0,0,1,1.311.172,30.651,30.651,0,0,0,3.459.623c.666,0,1.5.043,1.826-.623.064-.387.129-.752.193-1.139a5.77,5.77,0,0,0,.516-1.912Zm-13.129,5.587-.172-.15c.086-.107.258-.043.408-.129a2.123,2.123,0,0,1,1.031-.15,3.29,3.29,0,0,1-1.268.43Zm7.585-.193a5.411,5.411,0,0,0,1.289.3c-.043.172-.344.021-.3.236a2.722,2.722,0,0,1-1.1-.516c.043,0,.064-.043.107-.021Zm-11.388-5.2a.951.951,0,0,1,.3-.623,1.027,1.027,0,0,1,.967.043.432.432,0,0,1,.193.236.547.547,0,0,1-.193.559h-.129a1.6,1.6,0,0,1,.064-.559c-.021-.15-.129-.15-.236-.215a.66.66,0,0,0-.537.129.5.5,0,0,0-.15.537c.086.129.021.322.064.473l-.043.043c-.15-.172-.344-.344-.3-.623Zm.559.344c.172.129.43.064.666.107a.4.4,0,0,1-.064.408c-.215-.043-.473-.021-.58-.215.021-.086-.043-.215-.021-.3Zm-.021-.408c.043-.107,0-.236.129-.279.086-.021.215-.021.236.064a2.576,2.576,0,0,1-.064.43.252.252,0,0,1-.3-.215Zm5.694,3.911a1.3,1.3,0,0,1,.387-1.1.709.709,0,0,1,.516.021c-.322.086-.709.15-.8.559.021.15-.043.236.043.387.129.236.43.129.6.322a.162.162,0,0,1-.107.15,4.7,4.7,0,0,1-.645-.344Zm-.43.859c.3-.129.6-.387.924-.279a1.729,1.729,0,0,1-.924.279Zm1.139.107a8.263,8.263,0,0,1-.6,1.139c-.021.064-.129.064-.193.086,0-.172.172-.3.236-.451.258-.322.322-.688.623-1.01.086.107-.064.15-.064.236Zm.3-.709v.043h-.021V130.5h.043c-.021,0-.043,0-.043.021Zm-.107-.322a2.292,2.292,0,0,1-.58-.15c-.129-.129,0-.258,0-.387.172-.258.666-.408.881-.15a1.178,1.178,0,0,1-.3.688Zm.279,0a2.52,2.52,0,0,1,.193-.516,1.076,1.076,0,0,1-.193.516Zm.129-.988c-.15-.043-.236-.215-.408-.215a1.068,1.068,0,0,1,.451-.021c.064.086-.021.172-.043.236Zm.15.365h0l-.021-.129h.021v.129Zm0,.559c-.021-.043.021-.107.043-.172.064-.064.129.043.15.086a.173.173,0,0,1-.193.086Zm.193-.752a1.41,1.41,0,0,1,.172-.451.734.734,0,0,1,.322.043c.021.236.322.58,0,.774-.107.043-.258.15-.387.043a.307.307,0,0,1-.107-.408Zm.881-.344c-.021-.107.107-.021.15-.064l.387.021c-.193-.021-.43.43-.537.043Zm.6.15c-.15.043-.258.215-.408.258a.569.569,0,0,1,.408-.258Zm-.494.774v.043h-.021l.021-.043Zm.021.731c-.021.021.021.064-.021.086l-.279-.215a.33.33,0,0,1,.3.129Zm-.344-.365a.1.1,0,0,1,.107,0Zm-.172-.193c.043-.064.107-.193.193-.193,0,.021.021.021.021.043a.491.491,0,0,1-.215.15Zm-.279-.021h-.043l.064-.064c.043.021,0,.043-.021.064Zm.043.473c.15-.172.3.107.365.236.172.279.666.516.473.881-.236.215-.6.021-.859.172-.129-.021-.365.021-.43-.107a6.425,6.425,0,0,1,.451-1.182Zm-.344.236.064-.107a4.667,4.667,0,0,1-.408.881c-.064-.3.236-.537.344-.774Zm.537,1.44c-.236.021-.58.15-.8-.043.021-.107-.107-.15-.086-.236.193-.064.365.15.537-.021a5.744,5.744,0,0,1,.859.021c.129.043.344-.215.365.043-.107.408-.58.129-.881.236Zm.709-1.762v-.043h.021v.043Zm.064.774c.021.129.129.172.064.279a.443.443,0,0,1-.064-.279Zm.344.731-.064.021c-.064-.043-.043-.193-.021-.258a.188.188,0,0,1,.086.236Zm.623.3c-.021.043-.064.043-.107.021a6.822,6.822,0,0,1-.774-1.461l.043-.021c.3.473.537.988.838,1.461Zm.43-1.117a.067.067,0,0,0-.021.043,1.372,1.372,0,0,1-.859-.387l-.021-.064a2.3,2.3,0,0,1,.9.408Zm-.3-1.633c.15.043.15.193.172.322a.658.658,0,0,1-.408.6.609.609,0,0,1-.473.043.813.813,0,0,0,.731-.408l-.021-.559Zm-.279-.043a.767.767,0,0,1,.107.537c-.129.236-.365.236-.58.279a.338.338,0,0,1-.279-.086c.021-.043-.021-.086-.043-.129.043-.15-.279-.322-.064-.451.193-.193.666-.6.859-.15Zm6.167-.9c-.107.129-.021.322-.129.43,0,.215-.172.322-.344.408-1.44.322-2.858-.172-4.255-.408a14.851,14.851,0,0,0-6.231-.107c-.945.172-1.848.387-2.75.645a4.1,4.1,0,0,1-1.7-.021c-.43-.215-.258-.774-.387-1.16a5.254,5.254,0,0,0-.107-.838.563.563,0,0,1-.043-.322,3.686,3.686,0,0,1,.559.215,7.619,7.619,0,0,0,2.879-.3,19.726,19.726,0,0,1,2.815-.43,18.01,18.01,0,0,1,3.245.107c.344.021.623.107.967.129.688.086,1.311.279,2,.322a1.846,1.846,0,0,0,.365.064,6.005,6.005,0,0,0,3.374,0,8.844,8.844,0,0,1-.258,1.268Zm-.322-1.483c.021.193-.172.15-.258.215h-.3a.637.637,0,0,1-.043-.344,3.011,3.011,0,0,1,.6.129Zm-.15-.322c.129-.129-.043-.9.344-.408,0,.107.021.236-.086.322-.064.064-.15.15-.258.086Zm.988-.107a.666.666,0,0,1-.516.408c.021-.3.279-.494.172-.838a.718.718,0,0,0-.774-.236c-.107.064-.064.193-.107.3l-.043.408c-.236,0-.258-.215-.322-.387a.751.751,0,0,1,.387-.645.821.821,0,0,1,.709.021c.15.043.344.107.408.258.172.172.129.473.086.709Z" transform="translate(-156.532 -103.856)" fill="#fff"/></g><g transform="translate(0 33.671)"><path d="M40.288,185.832H38.4l-.215.516a1.379,1.379,0,0,0-.107.43.353.353,0,0,0,.172.322,1.48,1.48,0,0,0,.516.086v.15H37v-.15a.769.769,0,0,0,.473-.236,2.662,2.662,0,0,0,.451-.8l1.912-4.254H39.9l1.912,4.362a3.25,3.25,0,0,0,.451.774.64.64,0,0,0,.387.15v.15H40.073v-.15h.107a.714.714,0,0,0,.43-.086.2.2,0,0,0,.086-.172.42.42,0,0,0-.021-.15,2.87,2.87,0,0,0-.107-.3Zm-.129-.3-.8-1.826-.817,1.826Z" transform="translate(-37 -181.857)" fill="#fff"/><path d="M66.988,190.021V192.9c0,.279.021.451.086.516a.453.453,0,0,0,.322.129v.15h-1.5V193.2a1.472,1.472,0,0,1-.537.451,1.291,1.291,0,0,1-.58.15.883.883,0,0,1-.559-.193.811.811,0,0,1-.322-.451,2.977,2.977,0,0,1-.086-.9V190.8c0-.279-.021-.451-.086-.516a.453.453,0,0,0-.322-.129V190h1.5v2.514a2.358,2.358,0,0,0,.043.516.339.339,0,0,0,.107.172.3.3,0,0,0,.193.064.572.572,0,0,0,.258-.064,1.8,1.8,0,0,0,.387-.408v-1.955c0-.279-.021-.451-.086-.516a.453.453,0,0,0-.322-.129v-.15h1.5Z" transform="translate(-57.727 -188.217)" fill="#fff"/><path d="M85.456,189.7l.064,1.246h-.129a1.812,1.812,0,0,0-.494-.752.857.857,0,0,0-.516-.193.453.453,0,0,0-.279.107.289.289,0,0,0-.107.258.262.262,0,0,0,.086.193,3.709,3.709,0,0,0,.709.559,2.4,2.4,0,0,1,.752.666.987.987,0,0,1,.172.6,1.248,1.248,0,0,1-.15.6,1.088,1.088,0,0,1-.43.451,1.217,1.217,0,0,1-.623.15,2.354,2.354,0,0,1-.709-.172.967.967,0,0,0-.172-.043c-.086,0-.15.064-.215.193h-.129l-.064-1.311h.129a1.561,1.561,0,0,0,.494.774.973.973,0,0,0,.58.258.425.425,0,0,0,.3-.107.378.378,0,0,0,.129-.279.528.528,0,0,0-.107-.322,3.507,3.507,0,0,0-.516-.408,3.436,3.436,0,0,1-.774-.645,1.109,1.109,0,0,1-.258-.709,1.209,1.209,0,0,1,.3-.774,1.014,1.014,0,0,1,.838-.344,1.17,1.17,0,0,1,.58.15.343.343,0,0,0,.172.064.161.161,0,0,0,.107-.021c.021-.021.064-.086.129-.172h.129Z" transform="translate(-73.273 -187.981)" fill="#fff"/><path d="M96.812,183.9v1.354h.881v.387h-.881V187.9a1.761,1.761,0,0,0,.021.408.385.385,0,0,0,.107.15.186.186,0,0,0,.129.064c.172,0,.322-.129.473-.387l.107.086a1.087,1.087,0,0,1-1.031.752.96.96,0,0,1-.6-.193.8.8,0,0,1-.3-.43,3.954,3.954,0,0,1-.043-.731V185.64H95.2v-.129a5.676,5.676,0,0,0,.838-.731,4.1,4.1,0,0,0,.6-.859h.172Z" transform="translate(-82.694 -183.427)" fill="#fff"/><path d="M108.5,189.707v.838a2.376,2.376,0,0,1,.645-.752.968.968,0,0,1,.537-.193.454.454,0,0,1,.344.129.525.525,0,0,1,.129.387.619.619,0,0,1-.129.408.375.375,0,0,1-.3.15.583.583,0,0,1-.365-.129c-.107-.086-.172-.129-.172-.15a.129.129,0,0,0-.086-.021.276.276,0,0,0-.215.086.7.7,0,0,0-.236.387,2.635,2.635,0,0,0-.129.838v1.053a.818.818,0,0,0,.021.279.3.3,0,0,0,.129.15.926.926,0,0,0,.322.064v.15h-2v-.15a.563.563,0,0,0,.322-.129,1.137,1.137,0,0,0,.086-.6V190.46a1.761,1.761,0,0,0-.021-.408.468.468,0,0,0-.107-.172.373.373,0,0,0-.258-.064v-.15H108.5Z" transform="translate(-91.959 -187.903)" fill="#fff"/><path d="M124.434,192.923a2.038,2.038,0,0,1-1.2.6.637.637,0,0,1-.516-.215.712.712,0,0,1-.215-.516,1.011,1.011,0,0,1,.365-.752,7.98,7.98,0,0,1,1.569-.9v-.365a2.068,2.068,0,0,0-.043-.516.465.465,0,0,0-.172-.193.609.609,0,0,0-.279-.086.909.909,0,0,0-.43.107.219.219,0,0,0-.107.172.4.4,0,0,0,.107.215.448.448,0,0,1,.15.322.387.387,0,0,1-.15.322.505.505,0,0,1-.365.129.535.535,0,0,1-.408-.15.484.484,0,0,1-.172-.344.782.782,0,0,1,.215-.537,1.4,1.4,0,0,1,.623-.387,2.635,2.635,0,0,1,.838-.129,1.317,1.317,0,0,1,.817.215.972.972,0,0,1,.387.473,2.651,2.651,0,0,1,.064.752v1.418a1.065,1.065,0,0,0,.021.322c.021.043.043.086.064.086a.129.129,0,0,0,.086.021c.064,0,.129-.043.215-.15l.107.086a1.316,1.316,0,0,1-.408.43.92.92,0,0,1-.473.129.717.717,0,0,1-.494-.15A.529.529,0,0,1,124.434,192.923Zm0-.279v-1.225a2.263,2.263,0,0,0-.709.6.7.7,0,0,0-.15.43.437.437,0,0,0,.129.322.371.371,0,0,0,.279.107A1.145,1.145,0,0,0,124.434,192.644Z" transform="translate(-104.128 -187.981)" fill="#fff"/><path d="M140.347,182.4v4.555a.826.826,0,0,0,.086.494.574.574,0,0,0,.344.129v.15H138.8v-.15a.417.417,0,0,0,.365-.15.937.937,0,0,0,.086-.473v-3.782a.826.826,0,0,0-.086-.494.574.574,0,0,0-.344-.129v-.15Z" transform="translate(-116.926 -182.25)" fill="#fff"/><path d="M149.147,183.583v2.9a.826.826,0,0,0,.086.494.574.574,0,0,0,.344.129v.15H147.6v-.15a.417.417,0,0,0,.365-.15.937.937,0,0,0,.086-.473v-2.149a.826.826,0,0,0-.086-.494.574.574,0,0,0-.344-.129v-.15h1.526Zm-.537-1.783a.6.6,0,0,1,.43.172.623.623,0,0,1,0,.859.552.552,0,0,1-.43.172.639.639,0,0,1-.43-.172.6.6,0,0,1-.172-.43.639.639,0,0,1,.172-.43A.6.6,0,0,1,148.61,181.8Z" transform="translate(-123.835 -181.779)" fill="#fff"/><path d="M160.234,192.923a2.038,2.038,0,0,1-1.2.6.637.637,0,0,1-.516-.215.712.712,0,0,1-.215-.516,1.011,1.011,0,0,1,.365-.752,7.98,7.98,0,0,1,1.569-.9v-.365a2.067,2.067,0,0,0-.043-.516.465.465,0,0,0-.172-.193.609.609,0,0,0-.279-.086.909.909,0,0,0-.43.107.219.219,0,0,0-.107.172.4.4,0,0,0,.107.215.448.448,0,0,1,.15.322.387.387,0,0,1-.15.322.505.505,0,0,1-.365.129.535.535,0,0,1-.408-.15.484.484,0,0,1-.172-.344.782.782,0,0,1,.215-.537,1.4,1.4,0,0,1,.623-.387,2.635,2.635,0,0,1,.838-.129,1.317,1.317,0,0,1,.817.215.972.972,0,0,1,.387.473,2.65,2.65,0,0,1,.064.752v1.418a1.064,1.064,0,0,0,.021.322c.021.043.043.086.064.086a.129.129,0,0,0,.086.021c.064,0,.129-.043.215-.15l.107.086a1.316,1.316,0,0,1-.408.43.92.92,0,0,1-.473.129.717.717,0,0,1-.494-.15A.529.529,0,0,1,160.234,192.923Zm0-.279v-1.225a2.264,2.264,0,0,0-.709.6.7.7,0,0,0-.15.43.437.437,0,0,0,.129.322.371.371,0,0,0,.279.107A1.521,1.521,0,0,0,160.234,192.644Z" transform="translate(-132.236 -187.981)" fill="#fff"/><path d="M177.383,189.629v.473a2.39,2.39,0,0,1,.537-.451,1.276,1.276,0,0,1,.559-.15.961.961,0,0,1,.6.193,1.1,1.1,0,0,1,.322.494,3.674,3.674,0,0,1,.064.859v1.44a1,1,0,0,0,.086.537.453.453,0,0,0,.322.129v.15h-1.848v-.15a.47.47,0,0,0,.3-.172,1.143,1.143,0,0,0,.064-.494v-1.633a2.806,2.806,0,0,0-.043-.58.313.313,0,0,0-.129-.193.347.347,0,0,0-.193-.064c-.215,0-.43.15-.623.473v1.977c0,.279.021.451.086.516a.347.347,0,0,0,.279.129v.15h-1.848v-.15a.458.458,0,0,0,.322-.15,1.2,1.2,0,0,0,.064-.516v-2.084c0-.279-.021-.451-.086-.516a.5.5,0,0,0-.322-.129v-.15h1.483Z" transform="translate(-146.054 -187.824)" fill="#fff"/><path d="M209.943,181.743v1.869h-.15a2.211,2.211,0,0,0-.8-1.16,1.907,1.907,0,0,0-1.16-.408,1.387,1.387,0,0,0-.988.344,1.8,1.8,0,0,0-.559.945,4.811,4.811,0,0,0-.172,1.225,5.056,5.056,0,0,0,.172,1.354,1.551,1.551,0,0,0,.58.838,1.713,1.713,0,0,0,.967.279,2.368,2.368,0,0,0,.387-.043,1.5,1.5,0,0,0,.408-.129V185.74a1.412,1.412,0,0,0-.043-.408c-.021-.064-.086-.107-.172-.172a.717.717,0,0,0-.322-.064h-.129v-.15h2.578v.15a1.171,1.171,0,0,0-.408.086.379.379,0,0,0-.172.193,1.064,1.064,0,0,0-.043.365v1.117a6.031,6.031,0,0,1-1.053.344,5,5,0,0,1-1.139.107,3.125,3.125,0,0,1-1.268-.215,3.026,3.026,0,0,1-.881-.537,2.513,2.513,0,0,1-.6-.752,2.571,2.571,0,0,1-.279-1.225,2.789,2.789,0,0,1,.838-2.041,2.882,2.882,0,0,1,2.127-.838,3.623,3.623,0,0,1,.709.064c.107.021.3.086.559.172a1.915,1.915,0,0,0,.451.15A.308.308,0,0,0,209.6,182a.652.652,0,0,0,.172-.3h.172Z" transform="translate(-168.666 -181.7)" fill="#fff"/><path d="M234,189.6a1.691,1.691,0,0,1,.9.258,1.537,1.537,0,0,1,.623.709,2.214,2.214,0,0,1,.215.988,2.154,2.154,0,0,1-.387,1.311,1.556,1.556,0,0,1-1.332.645,1.469,1.469,0,0,1-1.268-.58,2.142,2.142,0,0,1-.451-1.354,2.2,2.2,0,0,1,.451-1.375A1.445,1.445,0,0,1,234,189.6Zm0,.279a.427.427,0,0,0-.344.15,1.3,1.3,0,0,0-.193.6c-.021.3-.043.709-.043,1.246a4.764,4.764,0,0,0,.064.8.67.67,0,0,0,.193.43.387.387,0,0,0,.322.15.466.466,0,0,0,.3-.107.694.694,0,0,0,.215-.365,10.022,10.022,0,0,0,.086-1.5,4.374,4.374,0,0,0-.064-.924.752.752,0,0,0-.215-.365A.452.452,0,0,0,234,189.879Z" transform="translate(-190.335 -187.903)" fill="#fff"/><path d="M250.248,193.882,249,191.024a2.58,2.58,0,0,0-.344-.645.49.49,0,0,0-.258-.129v-.15h1.955v.15a.373.373,0,0,0-.258.064.276.276,0,0,0-.086.215,1.787,1.787,0,0,0,.172.537l.6,1.375.473-1.182a2.677,2.677,0,0,0,.215-.731.209.209,0,0,0-.086-.193.58.58,0,0,0-.322-.086v-.15h1.2v.15a.563.563,0,0,0-.279.129,2.122,2.122,0,0,0-.322.623l-1.225,2.879Z" transform="translate(-202.976 -188.295)" fill="#fff"/><path d="M269.616,191.5H267.6a1.873,1.873,0,0,0,.387,1.16.824.824,0,0,0,.645.322.775.775,0,0,0,.43-.129,1.564,1.564,0,0,0,.408-.473l.129.086a2.212,2.212,0,0,1-.666.859,1.386,1.386,0,0,1-.838.258,1.436,1.436,0,0,1-1.246-.623,2.318,2.318,0,0,1-.344-1.268,2.108,2.108,0,0,1,.494-1.461,1.485,1.485,0,0,1,1.16-.537,1.285,1.285,0,0,1,.967.451A1.769,1.769,0,0,1,269.616,191.5Zm-.967-.279a3.675,3.675,0,0,0-.064-.859.694.694,0,0,0-.215-.365.363.363,0,0,0-.215-.064.413.413,0,0,0-.344.193,1.785,1.785,0,0,0-.236.967v.129Z" transform="translate(-217.186 -187.981)" fill="#fff"/><path d="M283.3,189.707v.838a2.376,2.376,0,0,1,.645-.752.968.968,0,0,1,.537-.193.454.454,0,0,1,.344.129.525.525,0,0,1,.129.387.619.619,0,0,1-.129.408.375.375,0,0,1-.3.15.583.583,0,0,1-.365-.129c-.107-.086-.172-.129-.172-.15a.129.129,0,0,0-.086-.021.276.276,0,0,0-.215.086.7.7,0,0,0-.236.387,2.635,2.635,0,0,0-.129.838v1.053a.818.818,0,0,0,.021.279.3.3,0,0,0,.129.15.9.9,0,0,0,.3.064v.15H281.8v-.15a.563.563,0,0,0,.322-.129,1.137,1.137,0,0,0,.086-.6V190.46a1.762,1.762,0,0,0-.021-.408.468.468,0,0,0-.107-.172.373.373,0,0,0-.258-.064v-.15H283.3Z" transform="translate(-229.199 -187.903)" fill="#fff"/><path d="M298.3,189.629v.473a2.39,2.39,0,0,1,.537-.451,1.276,1.276,0,0,1,.559-.15.961.961,0,0,1,.6.193,1.1,1.1,0,0,1,.322.494,3.674,3.674,0,0,1,.064.859v1.44a1,1,0,0,0,.086.537.453.453,0,0,0,.322.129v.15h-1.869v-.15a.47.47,0,0,0,.3-.172,1.143,1.143,0,0,0,.064-.494v-1.633a2.8,2.8,0,0,0-.043-.58.313.313,0,0,0-.129-.193.3.3,0,0,0-.193-.064c-.236,0-.43.15-.623.473v1.977c0,.279.021.451.086.516a.347.347,0,0,0,.279.129v.15h-1.848v-.15a.458.458,0,0,0,.322-.15,1.2,1.2,0,0,0,.064-.516v-2.084c0-.279-.022-.451-.086-.516a.453.453,0,0,0-.322-.129v-.15h1.5Z" transform="translate(-240.976 -187.824)" fill="#fff"/><path d="M317.626,189.629v.473a2.613,2.613,0,0,1,.559-.473,1.254,1.254,0,0,1,.559-.129.963.963,0,0,1,.967.666,2.488,2.488,0,0,1,.6-.516,1.192,1.192,0,0,1,.6-.15,1,1,0,0,1,.6.172.877.877,0,0,1,.322.451,2.831,2.831,0,0,1,.086.86v1.5c0,.279.022.451.086.516a.453.453,0,0,0,.322.129v.15H320.44v-.15a.4.4,0,0,0,.322-.172,1.143,1.143,0,0,0,.064-.494v-1.59a3.183,3.183,0,0,0-.043-.623.313.313,0,0,0-.129-.193.346.346,0,0,0-.193-.064.571.571,0,0,0-.344.129,1.9,1.9,0,0,0-.344.365v1.977a1.143,1.143,0,0,0,.064.494.355.355,0,0,0,.344.15v.15H318.27v-.15a.268.268,0,0,0,.236-.086.219.219,0,0,0,.107-.172,1.764,1.764,0,0,0,.021-.408v-1.59a3.183,3.183,0,0,0-.043-.623.313.313,0,0,0-.129-.193.346.346,0,0,0-.193-.064.432.432,0,0,0-.279.086,1.426,1.426,0,0,0-.387.408v1.977a.96.96,0,0,0,.086.516c.043.086.15.129.322.15v.15h-1.891v-.15a.458.458,0,0,0,.322-.15,1.2,1.2,0,0,0,.064-.516v-2.084c0-.279-.021-.451-.086-.516a.453.453,0,0,0-.322-.129v-.15h1.526Z" transform="translate(-256.129 -187.824)" fill="#fff"/><path d="M348.916,191.5H346.9a1.873,1.873,0,0,0,.387,1.16.824.824,0,0,0,.645.322.775.775,0,0,0,.43-.129,1.564,1.564,0,0,0,.408-.473l.129.086a2.03,2.03,0,0,1-.666.859,1.386,1.386,0,0,1-.838.258,1.436,1.436,0,0,1-1.246-.623,2.15,2.15,0,0,1-.344-1.268,2.108,2.108,0,0,1,.494-1.461,1.485,1.485,0,0,1,1.16-.537,1.285,1.285,0,0,1,.967.451A1.853,1.853,0,0,1,348.916,191.5Zm-.967-.279a3.676,3.676,0,0,0-.064-.859.694.694,0,0,0-.215-.365.363.363,0,0,0-.215-.064.355.355,0,0,0-.322.193,1.785,1.785,0,0,0-.236.967v.129Z" transform="translate(-279.447 -187.981)" fill="#fff"/><path d="M362.4,189.629v.473a2.39,2.39,0,0,1,.537-.451,1.276,1.276,0,0,1,.559-.15.96.96,0,0,1,.6.193,1.1,1.1,0,0,1,.322.494,3.676,3.676,0,0,1,.064.859v1.44a1,1,0,0,0,.086.537.453.453,0,0,0,.322.129v.15h-1.848v-.15a.47.47,0,0,0,.3-.172,1.143,1.143,0,0,0,.064-.494v-1.633a2.808,2.808,0,0,0-.043-.58.313.313,0,0,0-.129-.193.347.347,0,0,0-.193-.064c-.215,0-.43.15-.623.473v1.977c0,.279.022.451.086.516a.347.347,0,0,0,.279.129v.15h-1.869v-.15a.458.458,0,0,0,.322-.15,1.2,1.2,0,0,0,.064-.516v-2.084c0-.279-.021-.451-.086-.516a.453.453,0,0,0-.322-.129v-.15h1.5Z" transform="translate(-291.302 -187.824)" fill="#fff"/><path d="M381.212,183.9v1.354h.881v.387h-.881V187.9a1.76,1.76,0,0,0,.022.408.385.385,0,0,0,.107.15.186.186,0,0,0,.129.064c.172,0,.322-.129.473-.387l.107.086a1.087,1.087,0,0,1-1.031.752.96.96,0,0,1-.6-.193.8.8,0,0,1-.3-.43,3.951,3.951,0,0,1-.043-.731V185.64H379.6v-.129a5.675,5.675,0,0,0,.838-.731,4.1,4.1,0,0,0,.6-.859h.172Z" transform="translate(-305.984 -183.427)" fill="#fff"/></g></g><g transform="translate(136.873 27.084)"><path d="M501.8,41.9h5.565a7.949,7.949,0,0,1,3.524.752,5.787,5.787,0,0,1,2.385,2.149,6.117,6.117,0,0,1,.859,3.223,5.926,5.926,0,0,1-.859,3.223,5.657,5.657,0,0,1-2.385,2.149,7.727,7.727,0,0,1-3.524.752H501.8Zm5.436,9.927A4.132,4.132,0,0,0,510.18,50.8a4.053,4.053,0,0,0,0-5.544,4.1,4.1,0,0,0-2.944-1.031h-2.6v7.607Z" transform="translate(-501.8 -40.353)" fill="#fff"/><path d="M567.973,37.321a1.4,1.4,0,0,1-.473-1.1,1.433,1.433,0,0,1,.473-1.1,1.71,1.71,0,0,1,1.225-.43,1.81,1.81,0,0,1,1.225.43,1.315,1.315,0,0,1,.473,1.053,1.493,1.493,0,0,1-.473,1.139,1.888,1.888,0,0,1-2.45,0Zm-.15,1.762h2.729v9.411h-2.729Z" transform="translate(-553.383 -34.7)" fill="#fff"/><path d="M601.521,54.55v7.843a5.018,5.018,0,0,1-1.354,3.846,5.58,5.58,0,0,1-3.932,1.268,10.261,10.261,0,0,1-2.6-.322,5.464,5.464,0,0,1-2.041-.967l1.1-1.955a4.5,4.5,0,0,0,1.5.774,5.988,5.988,0,0,0,1.826.279,2.918,2.918,0,0,0,2.084-.645,2.547,2.547,0,0,0,.666-1.934v-.408a3.85,3.85,0,0,1-2.987,1.182,5.112,5.112,0,0,1-2.364-.559,4.379,4.379,0,0,1-2.321-4,4.589,4.589,0,0,1,.623-2.385,4.526,4.526,0,0,1,1.7-1.612,4.86,4.86,0,0,1,2.364-.559,3.714,3.714,0,0,1,3.116,1.354v-1.2h2.621Zm-3.4,6.081a2.386,2.386,0,0,0,0-3.352,2.491,2.491,0,0,0-1.783-.645,2.526,2.526,0,0,0-1.783.645,2.335,2.335,0,0,0,0,3.352,2.526,2.526,0,0,0,1.783.645A2.491,2.491,0,0,0,598.126,60.631Z" transform="translate(-571.912 -50.167)" fill="#fff"/><path d="M649.573,37.321a1.4,1.4,0,0,1-.473-1.1,1.433,1.433,0,0,1,.473-1.1,1.71,1.71,0,0,1,1.225-.43,1.81,1.81,0,0,1,1.225.43,1.315,1.315,0,0,1,.473,1.053,1.493,1.493,0,0,1-.473,1.139,1.724,1.724,0,0,1-1.225.451A1.655,1.655,0,0,1,649.573,37.321Zm-.15,1.762h2.729v9.411h-2.729Z" transform="translate(-617.449 -34.7)" fill="#fff"/><path d="M680,56.445a3.221,3.221,0,0,1-.988.451,4.557,4.557,0,0,1-1.225.15,3.618,3.618,0,0,1-2.6-.859,3.262,3.262,0,0,1-.924-2.514V49.8H672.8V47.678h1.461V45.4h2.729v2.278h2.342v2.106H676.99v3.825a1.364,1.364,0,0,0,.3.924,1.151,1.151,0,0,0,.859.322,1.713,1.713,0,0,0,1.1-.344Z" transform="translate(-636.057 -43.101)" fill="#fff"/><path d="M720.7,55.528a4,4,0,0,1,1.182,3.137v5.372h-2.557V62.855a3.03,3.03,0,0,1-2.879,1.311,4.636,4.636,0,0,1-1.891-.365,2.737,2.737,0,0,1-1.225-1.01,2.647,2.647,0,0,1-.43-1.461,2.415,2.415,0,0,1,.988-2.063,5.1,5.1,0,0,1,3.051-.752h2.213a1.721,1.721,0,0,0-.537-1.375,2.391,2.391,0,0,0-1.633-.473,5.086,5.086,0,0,0-1.483.236,3.318,3.318,0,0,0-1.225.645l-.988-1.912a5.841,5.841,0,0,1,1.848-.838,8.46,8.46,0,0,1,2.213-.3A4.684,4.684,0,0,1,720.7,55.528Zm-2.321,6.489a1.776,1.776,0,0,0,.773-.945V60.1h-1.869q-1.676,0-1.676,1.1a1,1,0,0,0,.408.838,1.794,1.794,0,0,0,1.139.3A2.37,2.37,0,0,0,718.379,62.017Z" transform="translate(-667.54 -50.242)" fill="#fff"/><path d="M765.4,38.4h2.729v13H765.4Z" transform="translate(-708.759 -37.605)" fill="#fff"/><path d="M501.8,134.2h2.836v12.269H501.8Z" transform="translate(-501.8 -112.82)" fill="#fff"/><path d="M535.571,130.721v13h-2.6v-1.1a3.615,3.615,0,0,1-2.944,1.225,4.766,4.766,0,0,1-2.407-.6,4.3,4.3,0,0,1-1.7-1.7,5.178,5.178,0,0,1-.623-2.557,4.958,4.958,0,0,1,.623-2.557,4.166,4.166,0,0,1,1.7-1.7,5,5,0,0,1,2.407-.6,3.58,3.58,0,0,1,2.815,1.139V130.7h2.729Zm-3.352,10.185a2.944,2.944,0,0,0,0-3.782,2.285,2.285,0,0,0-1.719-.709,2.332,2.332,0,0,0-1.74.709,2.944,2.944,0,0,0,0,3.782,2.464,2.464,0,0,0,3.459,0Z" transform="translate(-520.25 -110.072)" fill="#fff"/><path d="M590.584,152.33H583.45a2.183,2.183,0,0,0,.9,1.375,2.968,2.968,0,0,0,1.784.516,3.57,3.57,0,0,0,1.311-.215,3.3,3.3,0,0,0,1.053-.688l1.461,1.569a4.909,4.909,0,0,1-3.889,1.526,6.237,6.237,0,0,1-2.815-.623,4.586,4.586,0,0,1-1.891-1.719,5.037,5.037,0,0,1,0-5.007,4.54,4.54,0,0,1,1.8-1.74,5.359,5.359,0,0,1,2.557-.623,5.176,5.176,0,0,1,2.514.6A4.323,4.323,0,0,1,590,149a5.1,5.1,0,0,1,.645,2.578C590.649,151.642,590.627,151.878,590.584,152.33ZM584.2,149.3a2.173,2.173,0,0,0-.774,1.44h4.641a2.124,2.124,0,0,0-.774-1.418,2.263,2.263,0,0,0-1.547-.537A2.359,2.359,0,0,0,584.2,149.3Z" transform="translate(-563.747 -122.634)" fill="#fff"/><path d="M643.173,147.853a4.215,4.215,0,0,1,1.074,3.116v5.393h-2.729V151.4a2.477,2.477,0,0,0-.494-1.676,1.8,1.8,0,0,0-1.418-.559,2.185,2.185,0,0,0-1.655.645,2.637,2.637,0,0,0-.623,1.891v4.663H634.6V146.95h2.6v1.1a3.792,3.792,0,0,1,1.354-.924,4.675,4.675,0,0,1,1.762-.322A3.912,3.912,0,0,1,643.173,147.853Z" transform="translate(-606.065 -122.713)" fill="#fff"/><path d="M694.2,148.845a3.222,3.222,0,0,1-.988.451,4.557,4.557,0,0,1-1.225.15,3.618,3.618,0,0,1-2.6-.859,3.262,3.262,0,0,1-.924-2.514V142.2H687V140.1h1.461v-2.3h2.729v2.3h2.342V142.2H691.19v3.8a1.364,1.364,0,0,0,.3.924,1.15,1.15,0,0,0,.859.322,1.713,1.713,0,0,0,1.1-.344Z" transform="translate(-647.205 -115.647)" fill="#fff"/><path d="M727.373,129.721a1.4,1.4,0,0,1-.473-1.1,1.433,1.433,0,0,1,.473-1.1,1.71,1.71,0,0,1,1.225-.43,1.81,1.81,0,0,1,1.225.43,1.315,1.315,0,0,1,.473,1.053,1.493,1.493,0,0,1-.473,1.139,1.724,1.724,0,0,1-1.225.451A1.938,1.938,0,0,1,727.373,129.721Zm-.129,1.74h2.729v9.411h-2.729Z" transform="translate(-678.532 -107.246)" fill="#fff"/><path d="M757.4,148.845a3.222,3.222,0,0,1-.988.451,4.557,4.557,0,0,1-1.225.15,3.617,3.617,0,0,1-2.6-.859,3.262,3.262,0,0,1-.924-2.514V142.2H750.2V140.1h1.461v-2.3h2.729v2.3h2.342V142.2H754.39v3.8a1.364,1.364,0,0,0,.3.924,1.15,1.15,0,0,0,.859.322,1.712,1.712,0,0,0,1.1-.344Z" transform="translate(-696.825 -115.647)" fill="#fff"/><path d="M797.308,147.4l-4.255,10.013a4.861,4.861,0,0,1-1.612,2.3,3.87,3.87,0,0,1-2.3.666,4.945,4.945,0,0,1-1.461-.236,3.625,3.625,0,0,1-1.182-.623l.988-1.934a2.262,2.262,0,0,0,.731.43,2.193,2.193,0,0,0,.816.15,1.335,1.335,0,0,0,.9-.279,2.019,2.019,0,0,0,.623-.9l.043-.086-4.083-9.5h2.815l2.643,6.382,2.664-6.382Z" transform="translate(-725.326 -123.184)" fill="#fff"/></g><rect width="0.43" height="39.3" transform="translate(124.668 25)" fill="#fff"/></g><g transform="translate(185 -4871)"><rect width="41" height="14" rx="7" transform="translate(186 4918)" fill="#fff"/><path d="M5.336-1.719A1.513,1.513,0,0,1,4.758-.447,2.653,2.653,0,0,1,3.105,0H.551V-5.6H2.93q2.23,0,2.23,1.355a1.057,1.057,0,0,1-.141.537,1.265,1.265,0,0,1-.428.428,1.79,1.79,0,0,1-.631.25v.016a1.778,1.778,0,0,1,.715.236,1.4,1.4,0,0,1,.488.473A1.118,1.118,0,0,1,5.336-1.719ZM3.367-3.953q0-.52-.816-.52H2.238v1.059h.488a.694.694,0,0,0,.461-.15A.483.483,0,0,0,3.367-3.953Zm.176,2.227a.509.509,0,0,0-.176-.4A.674.674,0,0,0,2.9-2.281H2.238v1.145H2.8a.85.85,0,0,0,.543-.158A.522.522,0,0,0,3.543-1.727ZM7.678,0V-5.6h3.488v1.32h-1.8v.816h1.691v1.32H9.366v.824H11.3V0Zm8.846-4.281V0h-1.7V-4.281H13.262V-5.6H18.11v1.32ZM23.894,0l-.246-1.031H21.976L21.71,0H19.886l1.93-5.6h2.094L25.726,0ZM22.831-4.383h-.039a2.721,2.721,0,0,1-.055.309q-.047.215-.473,1.844h1.07l-.391-1.523A4.818,4.818,0,0,1,22.831-4.383Z" transform="translate(194 4928)" fill="#2d486f"/></g></g></svg>